<svg width="40" height="40" viewBox="0 0 40 40" fill="none" xmlns="http://www.w3.org/2000/svg">
<g clip-path="url(#clip0_1_3336)">
<path opacity="0.2" d="M20 0C31.0284 0 40 8.97164 40 20C40 31.0284 31.0284 40 20 40C8.97164 40 0 31.0284 0 20C0 8.97164 8.97164 0 20 0ZM13.8216 21.1784L22.155 29.5116C22.48 29.8366 22.9066 30 23.3334 30C23.76 30 24.1867 29.8366 24.5117 29.5116C25.1634 28.86 25.1634 27.8066 24.5117 27.155L17.3566 20L24.5116 12.845C25.1633 12.1934 25.1633 11.14 24.5116 10.4884C23.86 9.83672 22.8066 9.83672 22.155 10.4884L13.8216 18.8217C13.17 19.4734 13.17 20.5266 13.8216 21.1784Z" fill="#17253F"/>
</g>
<defs>
<clipPath id="clip0_1_3336">
<rect width="40" height="40" fill="white" transform="matrix(-1 0 0 1 40 0)"/>
</clipPath>
</defs>
</svg>
