<svg width="41" height="41" viewBox="0 0 41 41" fill="none" xmlns="http://www.w3.org/2000/svg">
<g clip-path="url(#clip0_1_3816)">
<path d="M11.5094 13.216H6.16359C5.68601 13.216 5.29883 12.8288 5.29883 12.3512V7.00539C5.29883 6.5278 5.68601 6.14062 6.16359 6.14062H11.5094C11.987 6.14062 12.3742 6.5278 12.3742 7.00539V12.3512C12.3742 12.8288 11.987 13.216 11.5094 13.216ZM7.02836 11.4864H10.6446V7.87015H7.02836V11.4864Z" fill="#04DA8D"/>
<path d="M20.6285 13.216H15.2827C14.8051 13.216 14.418 12.8288 14.418 12.3512V7.00539C14.418 6.5278 14.8051 6.14062 15.2827 6.14062H20.6285C21.1061 6.14062 21.4933 6.5278 21.4933 7.00539V12.3512C21.4933 12.8288 21.1061 13.216 20.6285 13.216ZM16.1475 11.4864H19.7638V7.87015H16.1475V11.4864Z" fill="#04DA8D"/>
<path d="M29.7457 13.216H24.3999C23.9223 13.216 23.5352 12.8288 23.5352 12.3512V7.00539C23.5352 6.5278 23.9223 6.14062 24.3999 6.14062H29.7457C30.2233 6.14062 30.6105 6.5278 30.6105 7.00539V12.3512C30.6105 12.8288 30.2233 13.216 29.7457 13.216ZM25.2647 11.4864H28.881V7.87015H25.2647V11.4864Z" fill="#04DA8D"/>
<path d="M34.8141 29.8761H29.4683C28.9907 29.8761 28.6035 29.4889 28.6035 29.0114V23.6655C28.6035 23.188 28.9907 22.8008 29.4683 22.8008H34.8141C35.2917 22.8008 35.6789 23.188 35.6789 23.6655V29.0114C35.6789 29.4889 35.2917 29.8761 34.8141 29.8761ZM30.333 28.1466H33.9493V24.5303H30.333V28.1466Z" fill="#04DA8D"/>
<path d="M6.87453 16.6748H10.8053C11.2829 16.6748 11.67 16.2877 11.67 15.8101C11.67 15.3325 11.2829 14.9453 10.8053 14.9453H6.87453C6.39694 14.9453 6.00977 15.3325 6.00977 15.8101C6.00977 16.2877 6.39694 16.6748 6.87453 16.6748Z" fill="white"/>
<path d="M16.0034 16.6748H19.9342C20.4118 16.6748 20.7989 16.2877 20.7989 15.8101C20.7989 15.3325 20.4118 14.9453 19.9342 14.9453H16.0034C15.5259 14.9453 15.1387 15.3325 15.1387 15.8101C15.1387 16.2877 15.5259 16.6748 16.0034 16.6748Z" fill="white"/>
<path d="M6.87453 20.1397H10.8053C11.2829 20.1397 11.67 19.7525 11.67 19.2749C11.67 18.7973 11.2829 18.4102 10.8053 18.4102H6.87453C6.39694 18.4102 6.00977 18.7973 6.00977 19.2749C6.00977 19.7525 6.39694 20.1397 6.87453 20.1397Z" fill="white"/>
<path d="M16.0034 20.1397H19.9342C20.4118 20.1397 20.7989 19.7525 20.7989 19.2749C20.7989 18.7973 20.4118 18.4102 19.9342 18.4102H16.0034C15.5259 18.4102 15.1387 18.7973 15.1387 19.2749C15.1387 19.7525 15.5259 20.1397 16.0034 20.1397Z" fill="white"/>
<path d="M37.5344 15.8841H35.8835V3.65392C35.8835 1.6413 34.2461 0.00390625 32.2335 0.00390625H3.68517C1.67255 0.00390625 0.0351562 1.6413 0.0351562 3.65392V24.4037C0.0351562 26.4163 1.67255 28.0537 3.68517 28.0537H13.7108V31.9631C13.7108 33.1539 12.7419 34.1228 11.551 34.1228H9.81021C9.33262 34.1228 8.94544 34.51 8.94544 34.9876C8.94544 35.4652 9.33262 35.8524 9.81021 35.8524H23.9873V37.5033C23.9873 39.0205 25.2216 40.2548 26.7388 40.2548H37.5344C39.0516 40.2548 40.286 39.0205 40.286 37.5033V18.6356C40.286 17.1184 39.0516 15.8841 37.5344 15.8841ZM38.5564 18.6356V19.3432H25.7169V18.6356C25.7169 18.0721 26.1754 17.6136 26.7389 17.6136H37.5344C38.098 17.6136 38.5564 18.0721 38.5564 18.6356ZM22.2079 28.0537H23.9874V34.0886C22.9773 33.9083 22.2079 33.0241 22.2079 31.9631V28.0537ZM25.7169 21.0727H38.5564V35.0661H25.7169V21.0727ZM3.68517 1.73343H32.2336C33.2925 1.73343 34.154 2.59497 34.154 3.65392V15.8841H26.7389C25.2217 15.8841 23.9874 17.1184 23.9874 18.6356V21.8678H1.76468V3.65392C1.76468 2.59497 2.62615 1.73343 3.68517 1.73343ZM1.76468 24.4037V23.5973H23.9874V26.3242H3.68517C2.62615 26.3242 1.76468 25.4626 1.76468 24.4037ZM15.4403 31.963V28.0537H20.4784V31.9631C20.4784 32.7616 20.7206 33.5045 21.135 34.1228H14.7836C15.1981 33.5045 15.4403 32.7616 15.4403 31.963ZM37.5344 38.5252H26.7389C26.1754 38.5252 25.7169 38.0667 25.7169 37.5032V36.7957H38.5564V37.5032C38.5564 38.0667 38.098 38.5252 37.5344 38.5252Z" fill="white"/>
<path d="M34.1041 31.6094H30.1734C29.6958 31.6094 29.3086 31.9966 29.3086 32.4741C29.3086 32.9517 29.6958 33.3389 30.1734 33.3389H34.1041C34.5817 33.3389 34.9689 32.9517 34.9689 32.4741C34.9689 31.9966 34.5817 31.6094 34.1041 31.6094Z" fill="white"/>
</g>
<defs>
<clipPath id="clip0_1_3816">
<rect width="40.3294" height="40.2509" fill="white"/>
</clipPath>
</defs>
</svg>
