<svg width="11" height="13" viewBox="0 0 11 13" fill="none" xmlns="http://www.w3.org/2000/svg">
<g clip-path="url(#clip0_1_5262)">
<path d="M10.2063 8.43826V3.6659C10.2063 3.37056 10.0487 3.0977 9.79298 2.95007L5.65999 0.563848C5.40424 0.416217 5.08914 0.416217 4.83339 0.563848L0.700408 2.95007C0.444659 3.0977 0.287109 3.37064 0.287109 3.6659V8.43826C0.287109 8.7336 0.444659 9.00646 0.700408 9.15409L4.83339 11.5403C5.08914 11.6879 5.40424 11.6879 5.65999 11.5403L9.79298 9.15409C10.0487 9.00646 10.2063 8.7336 10.2063 8.43826Z" fill="#FFC91D"/>
<path d="M9.79665 2.95155L9.71828 2.90625C9.76821 3.01371 9.79665 3.13158 9.79665 3.25408V8.02644C9.79665 8.32178 9.6391 8.59464 9.38335 8.74227L5.25036 11.1284C4.99461 11.276 4.67951 11.276 4.42376 11.1284L0.369141 8.78749C0.439649 8.93909 0.554381 9.06911 0.704077 9.15549L4.83706 11.5416C5.09281 11.6893 5.40791 11.6893 5.66366 11.5416L9.79665 9.15549C10.0524 9.00786 10.2099 8.73491 10.2099 8.43965V3.6673C10.2099 3.37204 10.0524 3.09918 9.79665 2.95155Z" fill="#FFA91A"/>
<path d="M9.06375 7.78005V4.32926C9.06375 4.03391 8.9062 3.76105 8.65045 3.61342L5.66197 1.88807C5.40622 1.74044 5.09112 1.74044 4.83537 1.88807L1.84689 3.61342C1.59114 3.76105 1.43359 4.034 1.43359 4.32926V7.78005C1.43359 8.07539 1.59114 8.34825 1.84689 8.49588L4.83537 10.2212C5.09112 10.3689 5.40622 10.3689 5.66197 10.2212L8.65045 8.49588C8.9062 8.34825 9.06375 8.07539 9.06375 7.78005Z" fill="#F79219"/>
<path d="M8.64826 3.6117L8.5699 3.56641C8.61982 3.67386 8.64826 3.79174 8.64826 3.91424V7.36503C8.64826 7.66038 8.49071 7.93324 8.23496 8.08087L5.24648 9.80622C4.99073 9.95385 4.67563 9.95385 4.41988 9.80622L1.50977 8.12608C1.58027 8.27768 1.69501 8.4077 1.8447 8.49408L4.83318 10.2194C5.08893 10.3671 5.40403 10.3671 5.65978 10.2194L8.64826 8.49408C8.90401 8.34645 9.06156 8.07351 9.06156 7.77825V4.32745C9.06156 4.03219 8.90401 3.75933 8.64826 3.6117Z" fill="#EF7816"/>
<path d="M5.40851 3.80566L5.91175 5.35437H7.54023C7.70034 5.35437 7.76696 5.55929 7.63743 5.65344L6.32 6.61064L6.82324 8.15935C6.87275 8.31169 6.69842 8.43833 6.56881 8.34418L5.25138 7.38698L3.93395 8.34418C3.80442 8.43833 3.63009 8.31169 3.67952 8.15935L4.18275 6.61064L2.86532 5.65344C2.7358 5.55929 2.80234 5.35437 2.96253 5.35437H4.59093L5.09416 3.80566C5.14351 3.65332 5.359 3.65332 5.40851 3.80566Z" fill="white"/>
</g>
<defs>
<clipPath id="clip0_1_5262">
<rect width="10.4449" height="12.0518" fill="white"/>
</clipPath>
</defs>
</svg>
