<svg width="21" height="21" viewBox="0 0 21 21" fill="none" xmlns="http://www.w3.org/2000/svg">
<path d="M18.1191 7.03905V4.51502C18.1191 3.94771 17.8938 3.40365 17.4926 3.0025C17.0915 2.60136 16.5474 2.376 15.9801 2.376H13.5096L11.7556 0.62201C11.3548 0.223616 10.8127 0 10.2476 0C9.68248 0 9.14034 0.223616 8.73957 0.62201L7.03905 2.376H4.51502C3.94771 2.376 3.40365 2.60136 3.0025 3.0025C2.60136 3.40365 2.376 3.94771 2.376 4.51502V7.03905L0.62201 8.73957C0.223616 9.14034 0 9.68248 0 10.2476C0 10.8127 0.223616 11.3548 0.62201 11.7556L2.376 13.5096V15.9801C2.376 16.5474 2.60136 17.0915 3.0025 17.4926C3.40365 17.8938 3.94771 18.1191 4.51502 18.1191H7.03905L8.73957 19.8731C9.14034 20.2715 9.68248 20.4951 10.2476 20.4951C10.8127 20.4951 11.3548 20.2715 11.7556 19.8731L13.5096 18.1191H15.9801C16.5474 18.1191 17.0915 17.8938 17.4926 17.4926C17.8938 17.0915 18.1191 16.5474 18.1191 15.9801V13.5096L19.8731 11.7556C20.2715 11.3548 20.4951 10.8127 20.4951 10.2476C20.4951 9.68248 20.2715 9.14034 19.8731 8.73957L18.1191 7.03905Z" fill="#02A570"/>
<path d="M13.96 6.3252C14.3405 6.31482 14.7099 6.45609 14.9863 6.71777C15.2626 6.97941 15.4231 7.34033 15.4336 7.7207C15.4439 8.09859 15.3051 8.4654 15.0469 8.74121L10.0527 13.7354C9.91727 13.87 9.75531 13.9751 9.57715 14.0439C9.39892 14.1128 9.20846 14.1443 9.01758 14.1357H9.00293C8.82128 14.1368 8.64082 14.1019 8.47266 14.0332C8.30452 13.9645 8.15142 13.8633 8.02246 13.7354L8.02051 13.7334L5.45898 11.2383H5.45996C5.1999 10.9781 5.05381 10.6256 5.05371 10.2578C5.05371 9.88979 5.19973 9.53661 5.45996 9.27637C5.7202 9.01612 6.07337 8.87012 6.44141 8.87012C6.76318 8.87019 7.07352 8.98152 7.32031 9.18359L7.42188 9.27637L8.73633 10.6064L8.9375 10.8105L9.13965 10.6074L12.9521 6.77832L12.957 6.77344C13.2187 6.4971 13.5795 6.33562 13.96 6.3252Z" fill="white" stroke="#02A570" stroke-width="0.567751"/>
</svg>
