<svg width="15" height="17" viewBox="0 0 15 17" fill="none" xmlns="http://www.w3.org/2000/svg">
<path d="M12.0137 11.435C11.1992 11.435 10.4653 11.7867 9.95601 12.3462L5.37489 9.50893C5.49719 9.19584 5.56502 8.85577 5.56502 8.5C5.56502 8.1441 5.49719 7.80403 5.37489 7.49107L9.95601 4.65363C10.4653 5.21315 11.1992 5.56503 12.0137 5.56503C13.548 5.56503 14.7963 4.3168 14.7963 2.78245C14.7963 1.2481 13.548 0 12.0137 0C10.4793 0 9.23112 1.24823 9.23112 2.78258C9.23112 3.13834 9.29908 3.47842 9.42126 3.79151L4.84026 6.62882C4.33093 6.0693 3.59709 5.71742 2.78258 5.71742C1.24823 5.71742 0 6.96578 0 8.5C0 10.0343 1.24823 11.2826 2.78258 11.2826C3.59709 11.2826 4.33093 10.9308 4.84026 10.3712L9.42126 13.2085C9.29908 13.5216 9.23112 13.8617 9.23112 14.2176C9.23112 15.7518 10.4793 17 12.0137 17C13.548 17 14.7963 15.7518 14.7963 14.2176C14.7963 12.6832 13.548 11.435 12.0137 11.435ZM10.2458 2.78258C10.2458 1.80775 11.0389 1.01464 12.0137 1.01464C12.9885 1.01464 13.7816 1.80775 13.7816 2.78258C13.7816 3.7574 12.9885 4.55051 12.0137 4.55051C11.0389 4.55051 10.2458 3.7574 10.2458 2.78258ZM2.78258 10.2679C1.80762 10.2679 1.01451 9.47482 1.01451 8.5C1.01451 7.52518 1.80762 6.73206 2.78258 6.73206C3.7574 6.73206 4.55038 7.52518 4.55038 8.5C4.55038 9.47482 3.7574 10.2679 2.78258 10.2679ZM10.2458 14.2174C10.2458 13.2426 11.0389 12.4495 12.0137 12.4495C12.9885 12.4495 13.7816 13.2426 13.7816 14.2174C13.7816 15.1922 12.9885 15.9854 12.0137 15.9854C11.0389 15.9854 10.2458 15.1922 10.2458 14.2174Z" fill="#3A4F64"/>
</svg>
