<svg width="40" height="40" viewBox="0 0 40 40" fill="none" xmlns="http://www.w3.org/2000/svg">
<path d="M39.2188 5.46484C39.6567 5.42531 40 5.05766 40 4.60938V0.859375C40 0.384766 39.6152 0 39.1406 0H0.859375C0.384766 0 0 0.384766 0 0.859375V4.60938C0 5.05766 0.343281 5.42531 0.78125 5.46484V34.5352C0.343281 34.5747 0 34.9423 0 35.3906V39.1406C0 39.6152 0.384766 40 0.859375 40H39.1406C39.6152 40 40 39.6152 40 39.1406V35.3906C40 34.9423 39.6567 34.5747 39.2188 34.5352V5.46484ZM1.71875 1.71875H38.2812V3.75H1.71875V1.71875ZM35.7366 10.4895C36.3798 10.4895 36.9824 10.3134 37.5 10.0081V13.2533H2.5V10.0081C3.01758 10.3134 3.62016 10.4895 4.26336 10.4895C5.30875 10.4895 6.24734 10.0258 6.88617 9.29398C7.525 10.0258 8.46352 10.4895 9.50891 10.4895C10.5543 10.4895 11.4928 10.0258 12.1316 9.29398C12.7705 10.0258 13.709 10.4895 14.7544 10.4895C15.7998 10.4895 16.7384 10.0258 17.3772 9.29398C18.016 10.0258 18.9545 10.4895 19.9999 10.4895C21.0453 10.4895 21.9839 10.0258 22.6227 9.29398C23.2615 10.0258 24.2 10.4895 25.2454 10.4895C26.2908 10.4895 27.2294 10.0258 27.8682 9.29398C28.507 10.0258 29.4456 10.4895 30.491 10.4895C31.5364 10.4895 32.475 10.0258 33.1138 9.29398C33.7527 10.0258 34.6912 10.4895 35.7366 10.4895ZM37.5 25.2667L35.0955 27.6712C34.7598 28.0069 34.7598 28.551 35.0955 28.8866C35.2633 29.0545 35.4832 29.1384 35.7031 29.1384C35.923 29.1384 36.143 29.0545 36.3108 28.8866L37.5 27.6974V34.5312H27.0703V31.1455H25.3516V34.5312H14.9219V14.972H37.5V19.0413L33.5397 23.0016C33.2041 23.3372 33.2041 23.8813 33.5397 24.217C33.7075 24.3848 33.9274 24.4687 34.1473 24.4687C34.3673 24.4687 34.5872 24.3848 34.755 24.217L37.5 21.472V25.2667ZM2.5 14.972H13.2031V34.5312H2.5V14.972ZM7.74555 5.46875H11.2723V7.00734C11.2723 7.97969 10.4813 8.7707 9.50898 8.7707C8.53664 8.7707 7.74555 7.97969 7.74555 7.00734V5.46875ZM23.4821 5.46875H27.0089V7.00734C27.0089 7.97969 26.2179 8.7707 25.2455 8.7707C24.2732 8.7707 23.4822 7.97969 23.4822 7.00734L23.4821 5.46875ZM18.2366 5.46875H21.7634V7.00734C21.7634 7.97969 20.9724 8.7707 20.0001 8.7707C19.0277 8.7707 18.2367 7.97969 18.2367 7.00734L18.2366 5.46875ZM12.9911 5.46875H16.5179V7.00734C16.5179 7.97969 15.7269 8.7707 14.7545 8.7707C13.7821 8.7707 12.9911 7.97969 12.9911 7.00734V5.46875ZM30.4911 8.7707C29.5188 8.7707 28.7277 7.97969 28.7277 7.00734V5.46875H32.2545V7.00734C32.2545 7.97969 31.4634 8.7707 30.4911 8.7707ZM2.5 5.46875H6.0268V7.00734C6.0268 7.97969 5.23578 8.7707 4.26336 8.7707C3.29102 8.7707 2.5 7.97969 2.5 7.00734V5.46875ZM38.2812 38.2812H1.71875V36.25H38.2812V38.2812ZM35.7366 8.7707C34.7643 8.7707 33.9733 7.97969 33.9733 7.00734V5.46875H37.5V7.00734C37.5 7.97969 36.709 8.7707 35.7366 8.7707Z" fill="#1A1A1A"/>
<path d="M18.6155 21.1864L16.9914 22.8104C16.6559 23.1461 16.6559 23.6902 16.9914 24.0258C17.1592 24.1936 17.3791 24.2775 17.5991 24.2775C17.819 24.2775 18.0389 24.1936 18.2067 24.0258L19.8308 22.4017C20.1664 22.0661 20.1664 21.5219 19.8308 21.1864C19.4952 20.8508 18.9511 20.8508 18.6155 21.1864Z" fill="#1A1A1A"/>
<path d="M29.7357 21.9163L30.3346 20.5095C30.6908 19.673 30.6041 18.7206 30.1026 17.9621C29.6011 17.2036 28.7589 16.7508 27.8496 16.7508H24.5722C23.6629 16.7508 22.8207 17.2036 22.3192 17.9621C21.8178 18.7206 21.7311 19.6729 22.0872 20.5095L22.6861 21.9163C21.3653 23.6473 20.6431 25.7723 20.6431 27.9586V30.8082C20.6431 31.2828 21.0278 31.6676 21.5024 31.6676H30.9194C31.394 31.6676 31.7788 31.2828 31.7788 30.8082V27.9586C31.7788 25.7723 31.0565 23.6473 29.7357 21.9163ZM23.753 18.91C23.9381 18.6301 24.2367 18.4695 24.5722 18.4695H27.8496C28.1852 18.4695 28.4838 18.6301 28.6688 18.91C28.8538 19.1899 28.8846 19.5276 28.7531 19.8363L28.1751 21.1942H24.2467L23.6687 19.8363C23.5372 19.5276 23.568 19.1899 23.753 18.91ZM30.0601 29.9489H22.3619V27.9587C22.3619 26.1302 22.972 24.3534 24.0873 22.9129H28.3348C29.4499 24.3534 30.0601 26.1303 30.0601 27.9587V29.9489Z" fill="#04DA8D"/>
<path d="M5.23438 23.1989C4.75977 23.1989 4.375 23.5837 4.375 24.0583V25.152C4.375 25.6266 4.75977 26.0114 5.23438 26.0114C5.70898 26.0114 6.09375 25.6266 6.09375 25.152V24.0583C6.09375 23.5837 5.70898 23.1989 5.23438 23.1989Z" fill="#04DA8D"/>
</svg>
