<svg width="49" height="40" viewBox="0 0 49 40" fill="none" xmlns="http://www.w3.org/2000/svg">
<path d="M24.3047 32.4472C17.4156 32.4472 11.8108 26.8425 11.8108 19.9533C11.8108 13.0641 17.4156 7.45935 24.3047 7.45935C31.1938 7.45935 36.7986 13.0641 36.7986 19.9533C36.7986 26.8425 31.1938 32.4472 24.3047 32.4472ZM24.3047 9.52994C18.5573 9.52994 13.8814 14.2058 13.8814 19.9533C13.8814 25.7008 18.5573 30.3766 24.3047 30.3766C30.0521 30.3766 34.728 25.7008 34.728 19.9533C34.728 14.2058 30.0522 9.52994 24.3047 9.52994Z" fill="#04DA8D"/>
<path d="M39.5054 12.4132C38.1204 9.6266 35.9955 7.27262 33.3606 5.6057C30.6546 3.89389 27.5231 2.98905 24.3047 2.98905C19.4355 2.98905 14.7948 5.08599 11.5728 8.74217L10.0193 7.37314C13.6343 3.27112 18.8411 0.918457 24.3047 0.918457C27.9155 0.918457 31.4297 1.93417 34.4675 3.85587C37.4226 5.72523 39.8058 8.3657 41.3596 11.4915L39.5054 12.4132Z" fill="#04DA8D"/>
<path d="M24.3046 38.9879C17.4327 38.9879 11.0703 35.2628 7.7002 29.2663L9.50518 28.2519C12.5092 33.5969 18.18 36.9173 24.3046 36.9173C28.7389 36.9173 32.9333 35.2173 36.1153 32.1306C39.2902 29.0506 41.1172 24.924 41.2596 20.511L43.3291 20.5778C43.1693 25.5302 41.1193 30.1609 37.5569 33.6168C33.9866 37.0804 29.2801 38.9879 24.3046 38.9879Z" fill="#04DA8D"/>
<path d="M11.1023 0.932841C11.0456 0.3639 10.5387 -0.0515351 9.96943 0.00540609C9.40049 0.062159 8.98524 0.569359 9.042 1.13839L9.71371 7.87327H6.99371V1.03562C6.99371 0.463853 6.53018 0.000324016 5.95842 0.000324016C5.38665 0.000324016 4.92313 0.463853 4.92313 1.03562V7.87317H2.20313L2.87484 1.1383C2.93169 0.569359 2.51635 0.062065 1.94741 0.00531203C1.37781 -0.0521939 0.871172 0.363806 0.814514 0.932747L0.0292899 8.80559C-0.137487 10.4772 0.413478 12.1503 1.54091 13.3957C1.89216 13.7838 2.29028 14.1201 2.72275 14.3995L2.17197 36.0219C2.14571 37.0515 2.52717 38.0248 3.24623 38.7624C3.9652 39.4999 4.9284 39.9061 5.95842 39.9061C6.98835 39.9061 7.95164 39.4999 8.67051 38.7624C9.38957 38.0248 9.77103 37.0515 9.74477 36.0219L9.194 14.3996C9.62647 14.1201 10.0246 13.7839 10.3758 13.3958C11.5033 12.1503 12.0542 10.4773 11.8875 8.80569L11.1023 0.932841ZM5.95833 13.285C4.84604 13.285 3.82242 12.8309 3.07597 12.0063C2.54261 11.4171 2.21273 10.7055 2.10741 9.94376H9.80924C9.70393 10.7055 9.37414 11.4171 8.84077 12.0063C8.09442 12.8309 7.0707 13.285 5.95833 13.285ZM7.67503 36.0747C7.68689 36.5415 7.5139 36.9827 7.18797 37.317C6.86204 37.6514 6.42534 37.8355 5.95842 37.8355C5.4915 37.8355 5.0548 37.6513 4.72896 37.317C4.40303 36.9826 4.23004 36.5414 4.2419 36.0746L4.77282 15.2346C5.16049 15.3135 5.55738 15.3554 5.95861 15.3554C6.35974 15.3554 6.75673 15.3135 7.1443 15.2346L7.67503 36.0747Z" fill="#1A1A1A"/>
<path d="M47.1523 0.000305176C44.2285 0.000305176 41.7299 1.99061 41.076 4.8404L38.864 14.482C38.4488 16.2922 39.0482 18.1884 40.4284 19.431C41.1153 20.0494 41.4814 20.9335 41.433 21.8564L40.6925 35.9594C40.6381 36.997 41.0019 37.9836 41.7171 38.7373C42.4324 39.491 43.3984 39.9061 44.4375 39.9061C46.5053 39.9061 48.1876 38.2237 48.1876 36.156V1.0356C48.1876 0.46374 47.7241 0.000305176 47.1523 0.000305176ZM46.117 36.156C46.117 37.0821 45.3636 37.8355 44.4375 37.8355C43.9722 37.8355 43.5394 37.6496 43.2191 37.312C42.8989 36.9745 42.7358 36.5326 42.7603 36.0679L43.5008 21.9649C43.5821 20.4151 42.9673 18.9307 41.8138 17.8922C40.9919 17.1522 40.6349 16.023 40.8823 14.9451L43.0942 5.30336C43.4511 3.74751 44.6314 2.57527 46.117 2.19918V36.156Z" fill="#1A1A1A"/>
</svg>
