<svg width="111" height="46" viewBox="0 0 111 46" fill="none" xmlns="http://www.w3.org/2000/svg">
<path d="M0.955385 20.3032C1.25974 12.2161 10.2358 7.95397 17.3331 10.0327C25.2496 12.3516 29.9692 19.7021 32.427 27.1415C33.5809 30.6265 35.0697 34.9065 34.362 38.6169C33.5552 42.8277 29.4064 43.7181 26.191 41.4009C19.5742 36.6294 24.733 25.3224 27.9085 20.0055C31.9702 13.2045 38.7701 7.84268 46.956 7.80702C55.2069 7.76928 61.0511 14.0179 63.0619 21.6179C63.9849 25.0941 65.0049 31.1306 61.4986 33.5599C60.0718 34.548 58.0105 34.7182 56.9661 33.098C56.0237 31.637 56.516 29.4605 56.9779 27.912C57.9517 24.6414 59.9608 21.5551 61.7186 18.6557C63.6625 15.4513 65.8175 12.3571 68.4092 9.64204C74.2609 3.51459 82.4828 0.576344 90.4636 4.43971C98.9882 8.56827 103.045 17.6946 104.144 26.6918L106.196 25.4075C102.617 23.3164 99.0375 21.2252 95.455 19.131C95.0115 19.9705 94.5681 20.81 94.1247 21.6495C98.4921 23.6991 102.652 26.0899 106.608 28.8447C107.347 29.3571 108.534 28.7309 108.669 27.898C109.408 23.358 110.14 18.8182 110.879 14.2782C111.174 12.4654 108.384 11.8111 108.086 13.6401C107.354 18.1799 106.618 22.7231 105.883 27.2597L107.944 26.313C103.985 23.5615 99.8252 21.1642 95.455 19.131C93.8018 18.3653 92.5353 20.7291 94.1247 21.6495C97.71 23.7274 101.302 25.8052 104.887 27.8831C105.743 28.3787 107.07 27.644 106.939 26.5987C105.688 16.6576 101.179 6.59391 91.7354 2.03026C83.1681 -2.11317 74.053 0.38267 67.3981 6.82185C63.8685 10.2396 61.0685 14.3942 58.5987 18.6195C56.457 22.2818 53.8906 26.3153 53.7709 30.6924C53.6717 34.3248 56.2669 37.549 60.1282 36.9376C64.4456 36.2562 66.3729 32.0321 66.5179 28.0766C66.8579 18.8674 61.5666 8.72478 52.3988 5.94253C42.9721 3.08087 33.1958 8.20051 27.5893 15.7269C22.8867 22.0449 16.7453 34.6441 22.8239 41.9152C25.0823 44.6141 29.0841 46.2693 32.5183 44.934C36.611 43.3403 37.4497 38.6607 36.9763 34.7802C35.7023 24.3622 30.1776 12.2257 19.7186 8.38675C15.2755 6.75229 10.2527 6.85848 6.17592 9.44584C2.38614 11.8485 -0.0652473 15.8132 0.0012962 20.3404C0.00938226 20.9542 0.924321 20.9118 0.942578 20.3101L0.955385 20.3032Z" fill="#17253F"/>
</svg>
