<svg width="40" height="40" viewBox="0 0 40 40" fill="none" xmlns="http://www.w3.org/2000/svg">
<path d="M11.4062 13.1339H6.09375C5.61914 13.1339 5.23438 12.7491 5.23438 12.2745V6.96203C5.23438 6.48743 5.61914 6.10266 6.09375 6.10266H11.4062C11.8808 6.10266 12.2656 6.48743 12.2656 6.96203V12.2745C12.2656 12.7491 11.8808 13.1339 11.4062 13.1339ZM6.95312 11.4152H10.5469V7.82141H6.95312V11.4152Z" fill="#04DA8D"/>
<path d="M20.4687 13.1339H15.1562C14.6816 13.1339 14.2969 12.7491 14.2969 12.2745V6.96203C14.2969 6.48743 14.6816 6.10266 15.1562 6.10266H20.4687C20.9433 6.10266 21.3281 6.48743 21.3281 6.96203V12.2745C21.3281 12.7491 20.9433 13.1339 20.4687 13.1339ZM16.0156 11.4152H19.6094V7.82141H16.0156V11.4152Z" fill="#04DA8D"/>
<path d="M29.5312 13.1339H24.2187C23.7441 13.1339 23.3594 12.7491 23.3594 12.2745V6.96203C23.3594 6.48743 23.7441 6.10266 24.2187 6.10266H29.5312C30.0058 6.10266 30.3906 6.48743 30.3906 6.96203V12.2745C30.3906 12.7491 30.0058 13.1339 29.5312 13.1339ZM25.0781 11.4152H28.6719V7.82141H25.0781V11.4152Z" fill="#04DA8D"/>
<path d="M34.5576 29.6875H29.2451C28.7705 29.6875 28.3857 29.3027 28.3857 28.8281V23.5156C28.3857 23.041 28.7705 22.6562 29.2451 22.6562H34.5576C35.0322 22.6562 35.417 23.041 35.417 23.5156V28.8281C35.417 29.3027 35.0322 29.6875 34.5576 29.6875ZM30.1045 27.9687H33.6982V24.375H30.1045V27.9687Z" fill="#04DA8D"/>
<path d="M6.79687 16.5713H10.7031C11.1777 16.5713 11.5625 16.1866 11.5625 15.712C11.5625 15.2374 11.1777 14.8526 10.7031 14.8526H6.79687C6.32226 14.8526 5.9375 15.2374 5.9375 15.712C5.9375 16.1866 6.32226 16.5713 6.79687 16.5713Z" fill="#1A1A1A"/>
<path d="M15.8694 16.5713H19.7756C20.2502 16.5713 20.635 16.1866 20.635 15.712C20.635 15.2374 20.2502 14.8526 19.7756 14.8526H15.8694C15.3948 14.8526 15.01 15.2374 15.01 15.712C15.01 16.1866 15.3948 16.5713 15.8694 16.5713Z" fill="#1A1A1A"/>
<path d="M6.79687 20.0088H10.7031C11.1777 20.0088 11.5625 19.6241 11.5625 19.1495C11.5625 18.6749 11.1777 18.2901 10.7031 18.2901H6.79687C6.32226 18.2901 5.9375 18.6749 5.9375 19.1495C5.9375 19.6241 6.32226 20.0088 6.79687 20.0088Z" fill="#1A1A1A"/>
<path d="M15.8694 20.0088H19.7756C20.2502 20.0088 20.635 19.6241 20.635 19.1495C20.635 18.6749 20.2502 18.2901 19.7756 18.2901H15.8694C15.3948 18.2901 15.01 18.6749 15.01 19.1495C15.01 19.6241 15.3948 20.0088 15.8694 20.0088Z" fill="#1A1A1A"/>
<path d="M37.2656 15.7812H35.6249V3.62726C35.6249 1.62718 33.9977 0 31.9977 0H3.62726C1.62718 0 0 1.62718 0 3.62726V24.2477C0 26.2478 1.62718 27.8749 3.62726 27.8749H13.5904V31.7599C13.5904 32.9434 12.6276 33.9063 11.444 33.9063H9.71412C9.23951 33.9063 8.85475 34.291 8.85475 34.7656C8.85475 35.2402 9.23951 35.625 9.71412 35.625H23.8028V37.2656C23.8028 38.7734 25.0295 40 26.5372 40H37.2656C38.7733 40 39.9999 38.7734 39.9999 37.2656V18.5156C39.9999 17.0079 38.7733 15.7812 37.2656 15.7812ZM38.2812 18.5156V19.2187H25.5217V18.5156C25.5217 17.9556 25.9773 17.5 26.5373 17.5H37.2656C37.8256 17.5 38.2812 17.9556 38.2812 18.5156ZM22.0346 27.8749H23.8029V33.8722C22.7992 33.6931 22.0346 32.8144 22.0346 31.7599V27.8749ZM25.5217 20.9375H38.2812V34.8437H25.5217V20.9375ZM3.62726 1.71875H31.9978C33.0501 1.71875 33.9062 2.57492 33.9062 3.62726V15.7812H26.5373C25.0296 15.7812 23.8029 17.0079 23.8029 18.5156V21.7276H1.71875V3.62726C1.71875 2.57492 2.57484 1.71875 3.62726 1.71875ZM1.71875 24.2477V23.4464H23.8029V26.1562H3.62726C2.57484 26.1562 1.71875 25.3 1.71875 24.2477ZM15.3091 31.7599V27.8749H20.3158V31.7599C20.3158 32.5535 20.5565 33.2918 20.9683 33.9063H14.6565C15.0684 33.2918 15.3091 32.5535 15.3091 31.7599ZM37.2656 38.2812H26.5373C25.9773 38.2812 25.5217 37.8256 25.5217 37.2656V36.5624H38.2812V37.2656C38.2812 37.8256 37.8256 38.2812 37.2656 38.2812Z" fill="#1A1A1A"/>
<path d="M33.8545 31.4062H29.9482C29.4736 31.4062 29.0889 31.791 29.0889 32.2656C29.0889 32.7402 29.4736 33.1249 29.9482 33.1249H33.8545C34.3291 33.1249 34.7139 32.7402 34.7139 32.2656C34.7139 31.791 34.3291 31.4062 33.8545 31.4062Z" fill="#1A1A1A"/>
</svg>
