<svg width="100" height="19" viewBox="0 0 100 19" fill="none" xmlns="http://www.w3.org/2000/svg">
<rect width="18.4151" height="18.4151" fill="#00B57A"/>
<path fill-rule="evenodd" clip-rule="evenodd" d="M10.856 7.63969L9.20748 2.56598L7.55893 7.63969H2.22412L6.54007 10.7754L4.89153 15.8491L9.20748 12.7134L13.5234 15.8491L12.1017 11.4735L9.58813 12.4127L11.8751 10.7761L11.8749 10.7754L16.1908 7.63969H10.856Z" fill="white"/>
<rect width="18.4151" height="18.4151" transform="translate(20.28)" fill="#00B57A"/>
<path fill-rule="evenodd" clip-rule="evenodd" d="M31.1361 7.63969L29.4875 2.56598L27.839 7.63969H22.5042L26.8201 10.7754L25.1716 15.8491L29.4875 12.7134L33.8035 15.8491L32.3817 11.4735L29.8682 12.4127L32.1551 10.7761L32.1549 10.7754L36.4709 7.63969H31.1361Z" fill="white"/>
<rect width="18.4151" height="18.4151" transform="translate(40.5598)" fill="#00B57A"/>
<path fill-rule="evenodd" clip-rule="evenodd" d="M51.4158 7.63969L49.7673 2.56598L48.1187 7.63969H42.7839L47.0999 10.7754L45.4513 15.8491L49.7673 12.7134L54.0832 15.8491L52.6615 11.4735L50.1479 12.4127L52.4349 10.7761L52.4347 10.7754L56.7507 7.63969H51.4158Z" fill="white"/>
<rect width="18.4151" height="18.4151" transform="translate(60.8398)" fill="#00B57A"/>
<path fill-rule="evenodd" clip-rule="evenodd" d="M71.6959 7.63969L70.0473 2.56598L68.3988 7.63969H63.064L67.3799 10.7754L65.7314 15.8491L70.0473 12.7134L74.3633 15.8491L72.9416 11.4735L70.428 12.4127L72.715 10.7761L72.7147 10.7754L77.0307 7.63969H71.6959Z" fill="white"/>
<rect width="18.4151" height="18.4151" transform="translate(81.1199)" fill="#00B57A"/>
<path fill-rule="evenodd" clip-rule="evenodd" d="M91.9759 7.63969L90.3274 2.56598L88.6788 7.63969H83.344L87.6599 10.7754L86.0114 15.8491L90.3274 12.7134L94.6433 15.8491L93.2216 11.4735L90.708 12.4127L92.995 10.7761L92.9948 10.7754L97.3107 7.63969H91.9759Z" fill="white"/>
</svg>
