<svg width="35" height="37" viewBox="0 0 35 37" fill="none" xmlns="http://www.w3.org/2000/svg">
<path d="M19.0327 5.15169C19.0327 3.41375 21.1463 2.5572 22.3562 3.8048L33.5049 15.3005C34.2392 16.0576 34.6498 17.0708 34.6498 18.1254V31.4316C34.6498 33.1696 32.5362 34.0261 31.3263 32.7785L20.1776 21.2828C19.4433 20.5257 19.0327 19.5125 19.0327 18.4579V5.15169Z" fill="#17253F"/>
<path d="M9.35425 4.77383C9.35425 3.03589 11.4678 2.17934 12.6777 3.42693L23.6619 14.753C24.5017 15.6189 24.9713 16.7777 24.9713 17.9839V31.0537C24.9713 32.7917 22.8578 33.6482 21.6478 32.4006L10.4991 20.905C9.76487 20.1479 9.35425 19.1346 9.35425 18.08V4.77383Z" fill="#E7F4EF"/>
<path d="M0 5.15169C0 3.41375 2.11356 2.5572 3.32349 3.8048L14.4722 15.3005C15.2065 16.0576 15.6171 17.0708 15.6171 18.1254V31.4316C15.6171 33.1696 13.5035 34.0261 12.2936 32.7785L1.14486 21.2828C0.410623 20.5257 0 19.5125 0 18.4579V5.15169Z" fill="#04DA8D"/>
</svg>
