<svg width="31" height="31" viewBox="0 0 31 31" fill="none" xmlns="http://www.w3.org/2000/svg">
<g clip-path="url(#clip0_1_4483)">
<path d="M29.3315 12.5919L16.8974 12.5913C16.3484 12.5913 15.9033 13.0363 15.9033 13.5854V17.5575C15.9033 18.1064 16.3484 18.5516 16.8974 18.5516H23.8995C23.1328 20.5414 21.7017 22.2078 19.8759 23.2667L22.8616 28.4352C27.651 25.6653 30.4825 20.8052 30.4825 15.3646C30.4825 14.59 30.4254 14.0362 30.3112 13.4126C30.2244 12.9389 29.8131 12.5919 29.3315 12.5919Z" fill="#167EE6"/>
<path d="M15.24 24.52C11.8133 24.52 8.82186 22.6477 7.2152 19.8772L2.04688 22.8562C4.677 27.4146 9.60408 30.4842 15.24 30.4842C18.0048 30.4842 20.6136 29.7398 22.861 28.4425V28.4354L19.8753 23.2669C18.5096 24.059 16.9292 24.52 15.24 24.52Z" fill="#12B347"/>
<path d="M22.8632 28.4443V28.4372L19.8775 23.2687C18.5118 24.0607 16.9315 24.5218 15.2422 24.5218V30.486C18.007 30.486 20.6159 29.7416 22.8632 28.4443Z" fill="#0F993E"/>
<path d="M5.96424 15.2436C5.96424 13.5546 6.42519 11.9744 7.21712 10.6087L2.04879 7.62976C0.744354 9.87003 0 12.4718 0 15.2436C0 18.0155 0.744354 20.6173 2.04879 22.8575L7.21712 19.8786C6.42519 18.5129 5.96424 16.9327 5.96424 15.2436Z" fill="#FFD500"/>
<path d="M15.2439 5.96424C17.4785 5.96424 19.531 6.75825 21.1342 8.079C21.5297 8.4048 22.1046 8.38128 22.4669 8.01899L25.2813 5.20459C25.6923 4.79353 25.663 4.12068 25.2239 3.73975C22.5378 1.40946 19.0429 0 15.2439 0C9.60798 0 4.68091 3.06964 2.05078 7.62805L7.21911 10.607C8.82576 7.8365 11.8172 5.96424 15.2439 5.96424Z" fill="#FF4B26"/>
<path d="M21.1325 8.079C21.528 8.4048 22.1029 8.38128 22.4651 8.01898L25.2795 5.20459C25.6905 4.79353 25.6612 4.12068 25.2222 3.73975C22.5361 1.4094 19.0412 0 15.2422 0V5.96424C17.4767 5.96424 19.5293 6.75825 21.1325 8.079Z" fill="#D93F21"/>
</g>
<defs>
<clipPath id="clip0_1_4483">
<rect width="30.4839" height="30.4839" fill="white"/>
</clipPath>
</defs>
</svg>
