<svg width="28" height="35" viewBox="0 0 28 35" fill="none" xmlns="http://www.w3.org/2000/svg">
<path d="M25.1417 29.6371C23.7361 31.7371 22.2458 33.7863 19.9764 33.8202C17.707 33.871 16.9788 32.4823 14.4046 32.4823C11.8135 32.4823 11.0175 33.7863 8.86672 33.871C6.64818 33.9557 4.97156 31.6355 3.54898 29.5863C0.653015 25.4032 -1.56553 17.6976 1.41511 12.5153C2.8885 9.94113 5.53043 8.31532 8.39253 8.26452C10.5603 8.23065 12.6264 9.7379 13.9643 9.7379C15.2853 9.7379 17.7917 7.92581 20.4167 8.19678C21.5175 8.24758 24.5998 8.6371 26.5812 11.55C26.4288 11.6516 22.9062 13.7177 22.9401 18.0024C22.9909 23.1169 27.428 24.8274 27.4788 24.8444C27.428 24.9629 26.7675 27.2831 25.1417 29.6371ZM15.4716 2.54032C16.7079 1.13468 18.757 0.0677419 20.4506 0C20.6708 1.98145 19.8748 3.97984 18.6893 5.40242C17.5208 6.84194 15.5901 7.95968 13.6933 7.80726C13.4393 5.85968 14.3877 3.82742 15.4716 2.54032Z" fill="white"/>
</svg>
