<svg width="169" height="52" viewBox="0 0 169 52" fill="none" xmlns="http://www.w3.org/2000/svg">
<path d="M0.432861 12.2853V39.0268C0.432861 43.5774 4.13214 47.261 8.68268 47.261H34.429C36.7121 47.261 38.7714 46.344 40.2658 44.848C41.7618 43.3693 42.6772 41.3099 42.6772 39.0268C42.6772 38.4807 43.1592 38.0613 43.7225 38.1427L52.5998 39.526C53.4683 39.67 53.9832 38.6419 53.3713 38.03L42.9354 27.3688C42.7742 27.192 42.6788 26.9823 42.6788 26.7413V12.2853C42.6788 7.7348 38.9967 4.03552 34.429 4.03552H8.68268C4.13214 4.03552 0.432861 7.7348 0.432861 12.2853Z" fill="#17253F"/>
<path d="M18.8896 13.976V20.2414H26.2614V13.976H18.8896ZM20.1635 21.5835V40.1083C23.6267 39.5047 26.2598 36.4837 26.2598 32.8467V21.5835H20.1635ZM24.8618 13.976V20.094H26.7098V13.976H24.8618ZM28.0504 13.976V20.094H32.1948C35.5742 20.094 38.3128 17.3554 38.3128 13.976H28.0504ZM24.8618 24.7752V30.8932H37.7604V24.7752H24.8618Z" fill="white"/>
<path d="M9.86552 13.976C6.40387 13.976 3.6001 16.7813 3.6001 20.2414H26.7099V13.976H9.86552ZM11.4513 13.976V40.2184H18.823V13.976H11.4513Z" fill="#04DA8D"/>
<path d="M60.0242 8.00262V22H58.1985V8.00262H53.6905V6.22195H64.5322V8.00262H60.0242ZM68.061 13.2995V22H66.2353V13.2995C66.2353 10.775 68.2639 8.7239 70.8334 8.70136H72.0731V10.5046H70.8334C69.3458 10.5271 68.061 11.7443 68.061 13.2995ZM79.4869 22.2254C76.3989 22.2254 73.8519 19.7235 73.8068 16.658V8.70136H75.5649L75.5874 16.658C75.6551 18.7317 77.3456 20.4447 79.4869 20.4447C81.6056 20.4447 83.2961 18.7317 83.3638 16.658L83.3863 8.70136H85.1444V16.658C85.0994 19.7235 82.5523 22.2254 79.4869 22.2254ZM98.2004 20.7152V22H96.3972V20.7152C96.3747 19.0022 95.3829 17.9653 93.6022 17.9428H91.799C89.2295 17.9202 87.2009 15.8691 87.2009 13.3221C87.2009 10.775 89.2295 8.7239 91.799 8.70136H96.555V10.5046H91.799C90.3114 10.5271 89.0266 11.7443 89.0266 13.3221C89.0266 14.8773 90.3114 16.0945 91.799 16.117H93.6022C96.7128 16.1396 98.2004 17.7399 98.2004 20.7152ZM105.991 20.3997V22.2254H104.954C102.384 22.2029 100.378 20.1517 100.378 17.6272V10.482H99.8147V8.70136H100.378V6.22195H102.159V8.70136H104.819V10.482H102.159V17.6272C102.159 19.1825 103.466 20.3771 104.954 20.3997H105.991ZM118.42 8.70136V25.381H116.639V20.6927C115.625 21.6394 114.25 22.2254 112.762 22.2254C109.674 22.2254 107.15 19.7235 107.105 16.658V8.70136H108.863L108.885 16.658C108.931 18.7317 110.644 20.4447 112.762 20.4447C114.881 20.4447 116.639 18.7317 116.639 16.658V8.70136H118.42Z" fill="#17253F"/>
<path d="M60.0242 8.00262V7.83863H59.8602V8.00262H60.0242ZM60.0242 22V22.164H60.1882V22H60.0242ZM58.1985 22H58.0345V22.164H58.1985V22ZM58.1985 8.00262H58.3625V7.83863H58.1985V8.00262ZM53.6905 8.00262H53.5265V8.1666H53.6905V8.00262ZM53.6905 6.22195V6.05796H53.5265V6.22195H53.6905ZM64.5322 6.22195H64.6962V6.05796H64.5322V6.22195ZM64.5322 8.00262V8.1666H64.6962V8.00262H64.5322ZM60.0242 8.00262H59.8602V22H60.0242H60.1882V8.00262H60.0242ZM60.0242 22V21.836H58.1985V22V22.164H60.0242V22ZM58.1985 22H58.3625V8.00262H58.1985H58.0345V22H58.1985ZM58.1985 8.00262V7.83863H53.6905V8.00262V8.1666H58.1985V8.00262ZM53.6905 8.00262H53.8545V6.22195H53.6905H53.5265V8.00262H53.6905ZM53.6905 6.22195V6.38594H64.5322V6.22195V6.05796H53.6905V6.22195ZM64.5322 6.22195H64.3683V8.00262H64.5322H64.6962V6.22195H64.5322ZM64.5322 8.00262V7.83863H60.0242V8.00262V8.1666H64.5322V8.00262ZM68.061 22V22.164H68.225V22H68.061ZM66.2353 22H66.0713V22.164H66.2353V22ZM70.8334 8.70136V8.53736L70.832 8.53738L70.8334 8.70136ZM72.0731 8.70136H72.2371V8.53737H72.0731V8.70136ZM72.0731 10.5046V10.6686H72.2371V10.5046H72.0731ZM70.8334 10.5046V10.3406L70.8309 10.3406L70.8334 10.5046ZM68.061 13.2995H67.897V22H68.061H68.225V13.2995H68.061ZM68.061 22V21.836H66.2353V22V22.164H68.061V22ZM66.2353 22H66.3992V13.2995H66.2353H66.0713V22H66.2353ZM66.2353 13.2995H66.3992C66.3992 10.8659 68.3545 8.8871 70.8349 8.86534L70.8334 8.70136L70.832 8.53738C68.1732 8.5607 66.0713 10.6842 66.0713 13.2995H66.2353ZM70.8334 8.70136V8.86535H72.0731V8.70136V8.53737H70.8334V8.70136ZM72.0731 8.70136H71.9091V10.5046H72.0731H72.2371V8.70136H72.0731ZM72.0731 10.5046V10.3406H70.8334V10.5046V10.6686H72.0731V10.5046ZM70.8334 10.5046L70.8309 10.3406C69.2578 10.3644 67.897 11.6507 67.897 13.2995H68.061H68.225C68.225 11.8379 69.4338 10.6898 70.8359 10.6685L70.8334 10.5046ZM73.8068 16.658H73.6428L73.6428 16.6604L73.8068 16.658ZM73.8068 8.70136V8.53737H73.6428V8.70136H73.8068ZM75.5649 8.70136L75.7289 8.70089L75.7284 8.53737H75.5649V8.70136ZM75.5874 16.658L75.4234 16.6585L75.4235 16.6633L75.5874 16.658ZM83.3638 16.658L83.5277 16.6633L83.5278 16.6585L83.3638 16.658ZM83.3863 8.70136V8.53737H83.2228L83.2223 8.70089L83.3863 8.70136ZM85.1444 8.70136H85.3084V8.53737H85.1444V8.70136ZM85.1444 16.658L85.3084 16.6604V16.658H85.1444ZM79.4869 22.2254V22.0614C76.4878 22.0614 74.0145 19.6307 73.9707 16.6556L73.8068 16.658L73.6428 16.6604C73.6892 19.8162 76.31 22.3894 79.4869 22.3894V22.2254ZM73.8068 16.658H73.9708V8.70136H73.8068H73.6428V16.658H73.8068ZM73.8068 8.70136V8.86535H75.5649V8.70136V8.53737H73.8068V8.70136ZM75.5649 8.70136L75.4009 8.70182L75.4235 16.6585L75.5874 16.658L75.7514 16.6575L75.7289 8.70089L75.5649 8.70136ZM75.5874 16.658L75.4235 16.6633C75.494 18.823 77.2546 20.6087 79.4869 20.6087V20.4447V20.2807C77.4365 20.2807 75.8162 18.6404 75.7513 16.6527L75.5874 16.658ZM79.4869 20.4447V20.6087C81.6972 20.6087 83.4573 18.8224 83.5277 16.6633L83.3638 16.658L83.1999 16.6527C83.135 18.641 81.5141 20.2807 79.4869 20.2807V20.4447ZM83.3638 16.658L83.5278 16.6585L83.5503 8.70182L83.3863 8.70136L83.2223 8.70089L83.1998 16.6575L83.3638 16.658ZM83.3863 8.70136V8.86535H85.1444V8.70136V8.53737H83.3863V8.70136ZM85.1444 8.70136H84.9804V16.658H85.1444H85.3084V8.70136H85.1444ZM85.1444 16.658L84.9805 16.6556C84.9367 19.6311 82.463 22.0614 79.4869 22.0614V22.2254V22.3894C82.6417 22.3894 85.262 19.8158 85.3084 16.6604L85.1444 16.658ZM98.2004 22V22.164H98.3644V22H98.2004ZM96.3972 22H96.2332V22.164H96.3972V22ZM96.3972 20.7152H96.5612L96.5612 20.7131L96.3972 20.7152ZM93.6022 17.9428L93.6043 17.7788H93.6022V17.9428ZM91.799 17.9428L91.7976 18.1068H91.799V17.9428ZM91.799 8.70136V8.53736L91.7976 8.53738L91.799 8.70136ZM96.555 8.70136H96.719V8.53737H96.555V8.70136ZM96.555 10.5046V10.6686H96.719V10.5046H96.555ZM91.799 10.5046V10.3406L91.7966 10.3406L91.799 10.5046ZM91.799 16.117L91.7965 16.281H91.799V16.117ZM93.6022 16.117L93.6034 15.9531H93.6022V16.117ZM98.2004 20.7152H98.0364V22H98.2004H98.3644V20.7152H98.2004ZM98.2004 22V21.836H96.3972V22V22.164H98.2004V22ZM96.3972 22H96.5612V20.7152H96.3972H96.2332V22H96.3972ZM96.3972 20.7152L96.5612 20.7131C96.5495 19.8256 96.286 19.0932 95.7753 18.5795C95.2644 18.0655 94.5261 17.7905 93.6043 17.7788L93.6022 17.9428L93.6002 18.1068C94.4591 18.1176 95.1069 18.3723 95.5427 18.8107C95.9787 19.2493 96.2224 19.8918 96.2332 20.7174L96.3972 20.7152ZM93.6022 17.9428V17.7788H91.799V17.9428V18.1068H93.6022V17.9428ZM91.799 17.9428L91.8005 17.7788C89.3206 17.7571 87.3648 15.7788 87.3648 13.3221H87.2009H87.0369C87.0369 15.9594 89.1383 18.0834 91.7976 18.1068L91.799 17.9428ZM87.2009 13.3221H87.3648C87.3648 10.8654 89.3206 8.88709 91.8005 8.86534L91.799 8.70136L91.7976 8.53738C89.1383 8.5607 87.0369 10.6847 87.0369 13.3221H87.2009ZM91.799 8.70136V8.86535H96.555V8.70136V8.53737H91.799V8.70136ZM96.555 8.70136H96.391V10.5046H96.555H96.719V8.70136H96.555ZM96.555 10.5046V10.3406H91.799V10.5046V10.6686H96.555V10.5046ZM91.799 10.5046L91.7966 10.3406C90.2225 10.3644 88.8626 11.6515 88.8626 13.3221H89.0266H89.1906C89.1906 11.837 90.4003 10.6898 91.8015 10.6685L91.799 10.5046ZM89.0266 13.3221H88.8626C88.8626 14.9709 90.2234 16.2572 91.7966 16.281L91.799 16.117L91.8015 15.9531C90.3994 15.9318 89.1906 14.7837 89.1906 13.3221H89.0266ZM91.799 16.117V16.281H93.6022V16.117V15.9531H91.799V16.117ZM93.6022 16.117L93.6011 16.281C95.13 16.2921 96.2309 16.6905 96.9508 17.4237C97.671 18.1573 98.0364 19.2529 98.0364 20.7152H98.2004H98.3644C98.3644 19.2022 97.986 18.01 97.1848 17.194C96.3832 16.3775 95.185 15.9645 93.6034 15.9531L93.6022 16.117ZM105.991 20.3997H106.155V20.2357H105.991V20.3997ZM105.991 22.2254V22.3894H106.155V22.2254H105.991ZM104.954 22.2254L104.952 22.3894H104.954V22.2254ZM100.378 10.482H100.542V10.318H100.378V10.482ZM99.8147 10.482H99.6507V10.646H99.8147V10.482ZM99.8147 8.70136V8.53737H99.6507V8.70136H99.8147ZM100.378 8.70136V8.86535H100.542V8.70136H100.378ZM100.378 6.22195V6.05796H100.214V6.22195H100.378ZM102.159 6.22195H102.323V6.05796H102.159V6.22195ZM102.159 8.70136H101.995V8.86535H102.159V8.70136ZM104.819 8.70136H104.983V8.53737H104.819V8.70136ZM104.819 10.482V10.646H104.983V10.482H104.819ZM102.159 10.482V10.318H101.995V10.482H102.159ZM104.954 20.3997L104.951 20.5636H104.954V20.3997ZM105.991 20.3997H105.827V22.2254H105.991H106.155V20.3997H105.991ZM105.991 22.2254V22.0614H104.954V22.2254V22.3894H105.991V22.2254ZM104.954 22.2254L104.955 22.0614C102.476 22.0397 100.542 20.0619 100.542 17.6272H100.378H100.214C100.214 20.2415 102.293 22.3661 104.952 22.3894L104.954 22.2254ZM100.378 17.6272H100.542V10.482H100.378H100.214V17.6272H100.378ZM100.378 10.482V10.318H99.8147V10.482V10.646H100.378V10.482ZM99.8147 10.482H99.9787V8.70136H99.8147H99.6507V10.482H99.8147ZM99.8147 8.70136V8.86535H100.378V8.70136V8.53737H99.8147V8.70136ZM100.378 8.70136H100.542V6.22195H100.378H100.214V8.70136H100.378ZM100.378 6.22195V6.38594H102.159V6.22195V6.05796H100.378V6.22195ZM102.159 6.22195H101.995V8.70136H102.159H102.323V6.22195H102.159ZM102.159 8.70136V8.86535H104.819V8.70136V8.53737H102.159V8.70136ZM104.819 8.70136H104.655V10.482H104.819H104.983V8.70136H104.819ZM104.819 10.482V10.318H102.159V10.482V10.646H104.819V10.482ZM102.159 10.482H101.995V17.6272H102.159H102.323V10.482H102.159ZM102.159 17.6272H101.995C101.995 19.2795 103.382 20.5398 104.951 20.5636L104.954 20.3997L104.956 20.2357C103.551 20.2144 102.323 19.0855 102.323 17.6272H102.159ZM104.954 20.3997V20.5636H105.991V20.3997V20.2357H104.954V20.3997ZM118.42 8.70136H118.584V8.53737H118.42V8.70136ZM118.42 25.381V25.545H118.584V25.381H118.42ZM116.639 25.381H116.475V25.545H116.639V25.381ZM116.639 20.6927H116.803V20.3153L116.527 20.5728L116.639 20.6927ZM107.105 16.658H106.941L106.941 16.6604L107.105 16.658ZM107.105 8.70136V8.53737H106.941V8.70136H107.105ZM108.863 8.70136L109.027 8.70089L109.026 8.53737H108.863V8.70136ZM108.885 16.658L108.721 16.6585L108.722 16.6616L108.885 16.658ZM116.639 8.70136V8.53737H116.475V8.70136H116.639ZM118.42 8.70136H118.256V25.381H118.42H118.584V8.70136H118.42ZM118.42 25.381V25.217H116.639V25.381V25.545H118.42V25.381ZM116.639 25.381H116.803V20.6927H116.639H116.475V25.381H116.639ZM116.639 20.6927L116.527 20.5728C115.542 21.4924 114.207 22.0614 112.762 22.0614V22.2254V22.3894C114.293 22.3894 115.708 21.7863 116.751 20.8126L116.639 20.6927ZM112.762 22.2254V22.0614C109.764 22.0614 107.313 19.6316 107.269 16.6556L107.105 16.658L106.941 16.6604C106.987 19.8154 109.585 22.3894 112.762 22.3894V22.2254ZM107.105 16.658H107.269V8.70136H107.105H106.941V16.658H107.105ZM107.105 8.70136V8.86535H108.863V8.70136V8.53737H107.105V8.70136ZM108.863 8.70136L108.699 8.70182L108.721 16.6585L108.885 16.658L109.049 16.6575L109.027 8.70089L108.863 8.70136ZM108.885 16.658L108.722 16.6616C108.769 18.8236 110.554 20.6087 112.762 20.6087V20.4447V20.2807C110.734 20.2807 109.093 18.6398 109.049 16.6544L108.885 16.658ZM112.762 20.4447V20.6087C114.968 20.6087 116.803 18.826 116.803 16.658H116.639H116.475C116.475 18.6374 114.794 20.2807 112.762 20.2807V20.4447ZM116.639 16.658H116.803V8.70136H116.639H116.475V16.658H116.639ZM116.639 8.70136V8.86535H118.42V8.70136V8.53737H116.639V8.70136Z" fill="#17253F"/>
<path d="M56.7785 37.9996V44.5587H54.9302V28.7807H65.6592V30.4937H56.7785V36.2865L63.7433 34.4382L64.1716 36.0386L56.7785 37.9996ZM74.069 44.7841C70.2822 44.7841 67.2168 41.7187 67.2168 37.8869C67.2168 34.1001 70.2822 31.0347 74.069 31.0347C77.3373 31.0347 79.4786 33.4239 80.0872 35.6328L70.3048 41.2904C71.2515 42.3272 72.5813 42.9809 74.069 43.0035C75.5566 43.0485 76.909 42.4399 77.9008 41.4031L79.2081 42.5752C77.8332 44.1981 75.6693 44.7841 74.069 44.7841ZM69.3806 39.8253L77.991 34.9341C77.1795 33.7169 75.8722 32.8153 74.069 32.8153C71.274 32.8153 68.9975 35.0919 68.9975 37.8869C68.9975 38.5631 69.1327 39.2167 69.3806 39.8253ZM88.7288 44.7841C84.9421 44.7841 81.8767 41.7187 81.8767 37.8869C81.8767 34.1001 84.9421 31.0347 88.7288 31.0347C91.9971 31.0347 94.1384 33.4239 94.747 35.6328L84.9646 41.2904C85.9113 42.3272 87.2412 42.9809 88.7288 43.0035C90.2165 43.0485 91.5689 42.4399 92.5606 41.4031L93.868 42.5752C92.493 44.1981 90.3292 44.7841 88.7288 44.7841ZM84.0405 39.8253L92.6508 34.9341C91.8394 33.7169 90.532 32.8153 88.7288 32.8153C85.9339 32.8153 83.6573 35.0919 83.6573 37.8869C83.6573 38.5631 83.7926 39.2167 84.0405 39.8253ZM103.434 44.7841C99.5794 44.7841 96.5365 41.7412 96.5365 37.8643C96.5365 34.0776 99.5794 31.0347 103.434 31.0347C105.44 31.0347 107.243 31.8912 108.483 33.2436V28.7807H110.263V42.7104H108.483V42.5526C107.243 43.9276 105.44 44.7841 103.434 44.7841ZM103.434 42.9809C106.229 42.9809 108.483 40.7269 108.483 37.8643C108.483 35.0919 106.206 32.8153 103.434 32.8153C100.616 32.8153 98.3397 35.0919 98.3397 37.8643C98.3397 40.7044 100.616 42.9809 103.434 42.9809ZM119.956 44.7841C117.95 44.7841 116.147 43.9276 114.907 42.5526V42.7104H113.126V28.7807H114.907V33.2436C116.147 31.8912 117.95 31.0347 119.956 31.0347C123.81 31.0347 126.853 34.0776 126.853 37.8643C126.853 41.7412 123.81 44.7841 119.956 44.7841ZM119.956 42.9809C122.773 42.9809 125.05 40.7044 125.05 37.8643C125.05 35.0919 122.773 32.8153 119.956 32.8153C117.183 32.8153 114.907 35.0919 114.907 37.8643C114.907 40.7269 117.161 42.9809 119.956 42.9809ZM135.549 44.7841C131.695 44.7841 128.652 41.7412 128.652 37.8643C128.652 34.0776 131.695 31.0347 135.549 31.0347C139.336 31.0347 142.379 34.0776 142.379 37.8643V42.7104H140.598V42.5526C139.358 43.9276 137.555 44.7841 135.549 44.7841ZM135.549 42.9809C138.344 42.9809 140.598 40.7269 140.598 37.8643C140.598 35.0919 138.321 32.8153 135.549 32.8153C132.731 32.8153 130.455 35.0919 130.455 37.8643C130.455 40.7044 132.731 42.9809 135.549 42.9809ZM151.066 44.7841C147.257 44.7841 144.169 41.7187 144.169 37.8869C144.169 34.1001 147.257 31.0347 151.066 31.0347C153.117 31.0347 154.988 31.9814 156.228 33.4239L155.236 35.0017C154.312 33.6719 152.802 32.8153 151.066 32.8153C148.271 32.8153 145.95 35.0919 145.95 37.8869C145.95 40.6818 148.271 43.0035 151.066 43.0035C152.667 43.0035 154.132 42.2145 155.033 41.0199L156.318 42.3047C155.056 43.8374 153.162 44.7841 151.066 44.7841ZM160.782 37.1656V44.5587H159.023V28.1045H160.782V34.6185L163.915 31.2601H166.191L162.089 35.723L168.107 44.5587H166.101L160.849 37.0754L160.782 37.1656Z" fill="#17253F"/>
<path d="M56.7785 37.9996L56.7364 37.841L56.6145 37.8734V37.9996H56.7785ZM56.7785 44.5587V44.7227H56.9424V44.5587H56.7785ZM54.9302 44.5587H54.7662V44.7227H54.9302V44.5587ZM54.9302 28.7807V28.6167H54.7662V28.7807H54.9302ZM65.6592 28.7807H65.8232V28.6167H65.6592V28.7807ZM65.6592 30.4937V30.6577H65.8232V30.4937H65.6592ZM56.7785 30.4937V30.3297H56.6145V30.4937H56.7785ZM56.7785 36.2865H56.6145V36.4997L56.8205 36.445L56.7785 36.2865ZM63.7433 34.4382L63.9018 34.3958L63.8594 34.2377L63.7013 34.2797L63.7433 34.4382ZM64.1716 36.0386L64.2136 36.1971L64.3725 36.1549L64.33 35.9962L64.1716 36.0386ZM56.7785 37.9996H56.6145V44.5587H56.7785H56.9424V37.9996H56.7785ZM56.7785 44.5587V44.3947H54.9302V44.5587V44.7227H56.7785V44.5587ZM54.9302 44.5587H55.0942V28.7807H54.9302H54.7662V44.5587H54.9302ZM54.9302 28.7807V28.9447H65.6592V28.7807V28.6167H54.9302V28.7807ZM65.6592 28.7807H65.4953V30.4937H65.6592H65.8232V28.7807H65.6592ZM65.6592 30.4937V30.3297H56.7785V30.4937V30.6577H65.6592V30.4937ZM56.7785 30.4937H56.6145V36.2865H56.7785H56.9424V30.4937H56.7785ZM56.7785 36.2865L56.8205 36.445L63.7854 34.5967L63.7433 34.4382L63.7013 34.2797L56.7364 36.128L56.7785 36.2865ZM63.7433 34.4382L63.5849 34.4806L64.0132 36.081L64.1716 36.0386L64.33 35.9962L63.9018 34.3958L63.7433 34.4382ZM64.1716 36.0386L64.1296 35.8801L56.7364 37.841L56.7785 37.9996L56.8205 38.1581L64.2136 36.1971L64.1716 36.0386ZM80.0872 35.6328L80.1693 35.7748L80.2789 35.7114L80.2453 35.5893L80.0872 35.6328ZM70.3048 41.2904L70.2227 41.1484L70.0463 41.2505L70.1837 41.401L70.3048 41.2904ZM74.069 43.0035L74.0739 42.8395L74.0715 42.8395L74.069 43.0035ZM77.9008 41.4031L78.0103 41.281L77.892 41.175L77.7823 41.2898L77.9008 41.4031ZM79.2081 42.5752L79.3332 42.6812L79.4363 42.5595L79.3176 42.4531L79.2081 42.5752ZM69.3806 39.8253L69.2288 39.8872L69.2992 40.0601L69.4616 39.9679L69.3806 39.8253ZM77.991 34.9341L78.072 35.0767L78.2251 34.9897L78.1274 34.8431L77.991 34.9341ZM74.069 44.7841V44.6201C70.3735 44.6201 67.3808 41.6288 67.3808 37.8869H67.2168H67.0528C67.0528 41.8085 70.191 44.9481 74.069 44.9481V44.7841ZM67.2168 37.8869H67.3808C67.3808 34.1907 70.3728 31.1987 74.069 31.1987V31.0347V30.8707C70.1917 30.8707 67.0528 34.0096 67.0528 37.8869H67.2168ZM74.069 31.0347V31.1987C77.2484 31.1987 79.3358 33.5229 79.9291 35.6764L80.0872 35.6328L80.2453 35.5893C79.6214 33.3249 77.4262 30.8707 74.069 30.8707V31.0347ZM80.0872 35.6328L80.0051 35.4909L70.2227 41.1484L70.3048 41.2904L70.3869 41.4324L80.1693 35.7748L80.0872 35.6328ZM70.3048 41.2904L70.1837 41.401C71.1589 42.4691 72.5308 43.1442 74.0665 43.1674L74.069 43.0035L74.0715 42.8395C72.6318 42.8177 71.344 42.1854 70.4259 41.1798L70.3048 41.2904ZM74.069 43.0035L74.064 43.1674C75.6014 43.214 76.9978 42.5844 78.0193 41.5165L77.9008 41.4031L77.7823 41.2898C76.8203 42.2955 75.5118 42.8831 74.0739 42.8395L74.069 43.0035ZM77.9008 41.4031L77.7913 41.5252L79.0986 42.6973L79.2081 42.5752L79.3176 42.4531L78.0103 41.281L77.9008 41.4031ZM79.2081 42.5752L79.083 42.4692C77.7491 44.0436 75.6388 44.6201 74.069 44.6201V44.7841V44.9481C75.6998 44.9481 77.9173 44.3525 79.3332 42.6812L79.2081 42.5752ZM69.3806 39.8253L69.4616 39.9679L78.072 35.0767L77.991 34.9341L77.91 34.7915L69.2996 39.6827L69.3806 39.8253ZM77.991 34.9341L78.1274 34.8431C77.2901 33.5872 75.9348 32.6514 74.069 32.6514V32.8153V32.9793C75.8096 32.9793 77.0689 33.8466 77.8545 35.0251L77.991 34.9341ZM74.069 32.8153V32.6514C71.1834 32.6514 68.8335 35.0013 68.8335 37.8869H68.9975H69.1615C69.1615 35.1825 71.3646 32.9793 74.069 32.9793V32.8153ZM68.9975 37.8869H68.8335C68.8335 38.5851 68.9732 39.2598 69.2288 39.8872L69.3806 39.8253L69.5325 39.7634C69.2922 39.1737 69.1615 38.541 69.1615 37.8869H68.9975ZM94.747 35.6328L94.8291 35.7748L94.9388 35.7114L94.9051 35.5893L94.747 35.6328ZM84.9646 41.2904L84.8825 41.1484L84.7061 41.2505L84.8435 41.401L84.9646 41.2904ZM88.7288 43.0035L88.7338 42.8395L88.7313 42.8395L88.7288 43.0035ZM92.5606 41.4031L92.6701 41.281L92.5519 41.175L92.4421 41.2898L92.5606 41.4031ZM93.868 42.5752L93.9931 42.6812L94.0962 42.5595L93.9774 42.4531L93.868 42.5752ZM84.0405 39.8253L83.8886 39.8872L83.9591 40.0601L84.1215 39.9679L84.0405 39.8253ZM92.6508 34.9341L92.7318 35.0767L92.885 34.9897L92.7873 34.8431L92.6508 34.9341ZM88.7288 44.7841V44.6201C85.0334 44.6201 82.0406 41.6288 82.0406 37.8869H81.8767H81.7127C81.7127 41.8085 84.8508 44.9481 88.7288 44.9481V44.7841ZM81.8767 37.8869H82.0406C82.0406 34.1907 85.0327 31.1987 88.7288 31.1987V31.0347V30.8707C84.8515 30.8707 81.7127 34.0096 81.7127 37.8869H81.8767ZM88.7288 31.0347V31.1987C91.9082 31.1987 93.9956 33.5229 94.5889 35.6764L94.747 35.6328L94.9051 35.5893C94.2813 33.3249 92.0861 30.8707 88.7288 30.8707V31.0347ZM94.747 35.6328L94.6649 35.4909L84.8825 41.1484L84.9646 41.2904L85.0467 41.4324L94.8291 35.7748L94.747 35.6328ZM84.9646 41.2904L84.8435 41.401C85.8188 42.4691 87.1907 43.1442 88.7263 43.1674L88.7288 43.0035L88.7313 42.8395C87.2917 42.8177 86.0039 42.1854 85.0857 41.1798L84.9646 41.2904ZM88.7288 43.0035L88.7239 43.1674C90.2613 43.214 91.6576 42.5844 92.6791 41.5165L92.5606 41.4031L92.4421 41.2898C91.4801 42.2955 90.1717 42.8831 88.7338 42.8395L88.7288 43.0035ZM92.5606 41.4031L92.4512 41.5252L93.7585 42.6973L93.868 42.5752L93.9774 42.4531L92.6701 41.281L92.5606 41.4031ZM93.868 42.5752L93.7428 42.4692C92.4089 44.0436 90.2987 44.6201 88.7288 44.6201V44.7841V44.9481C90.3597 44.9481 92.5771 44.3525 93.9931 42.6812L93.868 42.5752ZM84.0405 39.8253L84.1215 39.9679L92.7318 35.0767L92.6508 34.9341L92.5698 34.7915L83.9595 39.6827L84.0405 39.8253ZM92.6508 34.9341L92.7873 34.8431C91.95 33.5872 90.5947 32.6514 88.7288 32.6514V32.8153V32.9793C90.4694 32.9793 91.7287 33.8466 92.5144 35.0251L92.6508 34.9341ZM88.7288 32.8153V32.6514C85.8433 32.6514 83.4933 35.0013 83.4933 37.8869H83.6573H83.8213C83.8213 35.1825 86.0244 32.9793 88.7288 32.9793V32.8153ZM83.6573 37.8869H83.4933C83.4933 38.5851 83.633 39.2598 83.8886 39.8872L84.0405 39.8253L84.1924 39.7634C83.9521 39.1737 83.8213 38.541 83.8213 37.8869H83.6573ZM108.483 33.2436L108.362 33.3544L108.647 33.6652V33.2436H108.483ZM108.483 28.7807V28.6167H108.319V28.7807H108.483ZM110.263 28.7807H110.427V28.6167H110.263V28.7807ZM110.263 42.7104V42.8744H110.427V42.7104H110.263ZM108.483 42.7104H108.319V42.8744H108.483V42.7104ZM108.483 42.5527H108.647V42.1259L108.361 42.4428L108.483 42.5527ZM103.434 44.7841V44.6201C99.6703 44.6201 96.7005 41.651 96.7005 37.8643H96.5365H96.3725C96.3725 41.8314 99.4885 44.9481 103.434 44.9481V44.7841ZM96.5365 37.8643H96.7005C96.7005 34.1692 99.6689 31.1987 103.434 31.1987V31.0347V30.8707C99.4899 30.8707 96.3725 33.986 96.3725 37.8643H96.5365ZM103.434 31.0347V31.1987C105.392 31.1987 107.152 32.0348 108.362 33.3544L108.483 33.2436L108.604 33.1328C107.334 31.7476 105.487 30.8707 103.434 30.8707V31.0347ZM108.483 33.2436H108.647V28.7807H108.483H108.319V33.2436H108.483ZM108.483 28.7807V28.9447H110.263V28.7807V28.6167H108.483V28.7807ZM110.263 28.7807H110.099V42.7104H110.263H110.427V28.7807H110.263ZM110.263 42.7104V42.5464H108.483V42.7104V42.8744H110.263V42.7104ZM108.483 42.7104H108.647V42.5527H108.483H108.319V42.7104H108.483ZM108.483 42.5527L108.361 42.4428C107.152 43.7842 105.392 44.6201 103.434 44.6201V44.7841V44.9481C105.487 44.9481 107.335 44.071 108.605 42.6625L108.483 42.5527ZM103.434 42.9809V43.1449C106.321 43.1449 108.647 40.816 108.647 37.8643H108.483H108.319C108.319 40.6378 106.137 42.8169 103.434 42.8169V42.9809ZM108.483 37.8643H108.647C108.647 35.0013 106.297 32.6514 103.434 32.6514V32.8153V32.9793C106.116 32.9793 108.319 35.1825 108.319 37.8643H108.483ZM103.434 32.8153V32.6514C100.527 32.6514 98.1757 35.0004 98.1757 37.8643H98.3397H98.5037C98.5037 35.1834 100.706 32.9793 103.434 32.9793V32.8153ZM98.3397 37.8643H98.1757C98.1757 40.7945 100.525 43.1449 103.434 43.1449V42.9809V42.8169C100.707 42.8169 98.5037 40.6143 98.5037 37.8643H98.3397ZM114.907 42.5527L115.029 42.4428L114.743 42.1259V42.5527H114.907ZM114.907 42.7104V42.8744H115.071V42.7104H114.907ZM113.126 42.7104H112.962V42.8744H113.126V42.7104ZM113.126 28.7807V28.6167H112.962V28.7807H113.126ZM114.907 28.7807H115.071V28.6167H114.907V28.7807ZM114.907 33.2436H114.743V33.6652L115.028 33.3544L114.907 33.2436ZM119.956 44.7841V44.6201C117.997 44.6201 116.238 43.7842 115.029 42.4428L114.907 42.5527L114.785 42.6625C116.055 44.071 117.902 44.9481 119.956 44.9481V44.7841ZM114.907 42.5527H114.743V42.7104H114.907H115.071V42.5527H114.907ZM114.907 42.7104V42.5464H113.126V42.7104V42.8744H114.907V42.7104ZM113.126 42.7104H113.29V28.7807H113.126H112.962V42.7104H113.126ZM113.126 28.7807V28.9447H114.907V28.7807V28.6167H113.126V28.7807ZM114.907 28.7807H114.743V33.2436H114.907H115.071V28.7807H114.907ZM114.907 33.2436L115.028 33.3544C116.237 32.0348 117.997 31.1987 119.956 31.1987V31.0347V30.8707C117.902 30.8707 116.056 31.7476 114.786 33.1328L114.907 33.2436ZM119.956 31.0347V31.1987C123.721 31.1987 126.689 34.1692 126.689 37.8643H126.853H127.017C127.017 33.986 123.9 30.8707 119.956 30.8707V31.0347ZM126.853 37.8643H126.689C126.689 41.651 123.719 44.6201 119.956 44.6201V44.7841V44.9481C123.901 44.9481 127.017 41.8314 127.017 37.8643H126.853ZM119.956 42.9809V43.1449C122.864 43.1449 125.214 40.7945 125.214 37.8643H125.05H124.886C124.886 40.6143 122.682 42.8169 119.956 42.8169V42.9809ZM125.05 37.8643H125.214C125.214 35.0004 122.863 32.6514 119.956 32.6514V32.8153V32.9793C122.684 32.9793 124.886 35.1834 124.886 37.8643H125.05ZM119.956 32.8153V32.6514C117.093 32.6514 114.743 35.0013 114.743 37.8643H114.907H115.071C115.071 35.1825 117.274 32.9793 119.956 32.9793V32.8153ZM114.907 37.8643H114.743C114.743 40.816 117.069 43.1449 119.956 43.1449V42.9809V42.8169C117.253 42.8169 115.071 40.6378 115.071 37.8643H114.907ZM142.379 42.7104V42.8744H142.543V42.7104H142.379ZM140.598 42.7104H140.434V42.8744H140.598V42.7104ZM140.598 42.5527H140.762V42.1259L140.476 42.4428L140.598 42.5527ZM135.549 44.7841V44.6201C131.786 44.6201 128.816 41.651 128.816 37.8643H128.652H128.488C128.488 41.8314 131.604 44.9481 135.549 44.9481V44.7841ZM128.652 37.8643H128.816C128.816 34.1692 131.784 31.1987 135.549 31.1987V31.0347V30.8707C131.605 30.8707 128.488 33.986 128.488 37.8643H128.652ZM135.549 31.0347V31.1987C139.245 31.1987 142.215 34.1681 142.215 37.8643H142.379H142.543C142.543 33.987 139.426 30.8707 135.549 30.8707V31.0347ZM142.379 37.8643H142.215V42.7104H142.379H142.543V37.8643H142.379ZM142.379 42.7104V42.5464H140.598V42.7104V42.8744H142.379V42.7104ZM140.598 42.7104H140.762V42.5527H140.598H140.434V42.7104H140.598ZM140.598 42.5527L140.476 42.4428C139.267 43.7842 137.507 44.6201 135.549 44.6201V44.7841V44.9481C137.603 44.9481 139.45 44.071 140.72 42.6625L140.598 42.5527ZM135.549 42.9809V43.1449C138.436 43.1449 140.762 40.816 140.762 37.8643H140.598H140.434C140.434 40.6378 138.252 42.8169 135.549 42.8169V42.9809ZM140.598 37.8643H140.762C140.762 35.0013 138.412 32.6514 135.549 32.6514V32.8153V32.9793C138.231 32.9793 140.434 35.1825 140.434 37.8643H140.598ZM135.549 32.8153V32.6514C132.642 32.6514 130.291 35.0004 130.291 37.8643H130.455H130.619C130.619 35.1834 132.821 32.9793 135.549 32.9793V32.8153ZM130.455 37.8643H130.291C130.291 40.7945 132.64 43.1449 135.549 43.1449V42.9809V42.8169C132.822 42.8169 130.619 40.6143 130.619 37.8643H130.455ZM156.228 33.4239L156.367 33.5112L156.431 33.4088L156.352 33.317L156.228 33.4239ZM155.236 35.0017L155.101 35.0953L155.243 35.299L155.375 35.089L155.236 35.0017ZM155.033 41.0199L155.149 40.904L155.016 40.7707L154.902 40.9211L155.033 41.0199ZM156.318 42.3047L156.445 42.409L156.539 42.294L156.434 42.1888L156.318 42.3047ZM151.066 44.7841V44.6201C147.347 44.6201 144.333 41.6278 144.333 37.8869H144.169H144.005C144.005 41.8096 147.167 44.9481 151.066 44.9481V44.7841ZM144.169 37.8869H144.333C144.333 34.1917 147.346 31.1987 151.066 31.1987V31.0347V30.8707C147.167 30.8707 144.005 34.0085 144.005 37.8869H144.169ZM151.066 31.0347V31.1987C153.067 31.1987 154.893 32.1222 156.104 33.5308L156.228 33.4239L156.352 33.317C155.083 31.8405 153.168 30.8707 151.066 30.8707V31.0347ZM156.228 33.4239L156.089 33.3367L155.097 34.9145L155.236 35.0017L155.375 35.089L156.367 33.5112L156.228 33.4239ZM155.236 35.0017L155.371 34.9081C154.417 33.5362 152.858 32.6514 151.066 32.6514V32.8153V32.9793C152.746 32.9793 154.207 33.8075 155.101 35.0953L155.236 35.0017ZM151.066 32.8153V32.6514C148.183 32.6514 145.786 34.9994 145.786 37.8869H145.95H146.114C146.114 35.1843 148.36 32.9793 151.066 32.9793V32.8153ZM145.95 37.8869H145.786C145.786 40.7724 148.181 43.1674 151.066 43.1674V43.0035V42.8395C148.362 42.8395 146.114 40.5913 146.114 37.8869H145.95ZM151.066 43.0035V43.1674C152.72 43.1674 154.233 42.3525 155.164 41.1187L155.033 41.0199L154.902 40.9211C154.03 42.0766 152.613 42.8395 151.066 42.8395V43.0035ZM155.033 41.0199L154.917 41.1359L156.202 42.4207L156.318 42.3047L156.434 42.1888L155.149 40.904L155.033 41.0199ZM156.318 42.3047L156.191 42.2005C154.959 43.6965 153.112 44.6201 151.066 44.6201V44.7841V44.9481C153.213 44.9481 155.152 43.9783 156.445 42.409L156.318 42.3047ZM160.782 37.1656L160.65 37.0672L160.618 37.1109V37.1656H160.782ZM160.782 44.5587V44.7227H160.945V44.5587H160.782ZM159.023 44.5587H158.859V44.7227H159.023V44.5587ZM159.023 28.1045V27.9405H158.859V28.1045H159.023ZM160.782 28.1045H160.945V27.9405H160.782V28.1045ZM160.782 34.6185H160.618V35.0347L160.901 34.7304L160.782 34.6185ZM163.915 31.2601V31.0961H163.843L163.795 31.1482L163.915 31.2601ZM166.191 31.2601L166.312 31.371L166.565 31.0961H166.191V31.2601ZM162.089 35.723L161.968 35.612L161.88 35.7078L161.953 35.8153L162.089 35.723ZM168.107 44.5587V44.7227H168.417L168.243 44.4664L168.107 44.5587ZM166.101 44.5587L165.967 44.6529L166.016 44.7227H166.101V44.5587ZM160.849 37.0754L160.983 36.9812L160.854 36.7962L160.718 36.977L160.849 37.0754ZM160.782 37.1656H160.618V44.5587H160.782H160.945V37.1656H160.782ZM160.782 44.5587V44.3947H159.023V44.5587V44.7227H160.782V44.5587ZM159.023 44.5587H159.187V28.1045H159.023H158.859V44.5587H159.023ZM159.023 28.1045V28.2685H160.782V28.1045V27.9405H159.023V28.1045ZM160.782 28.1045H160.618V34.6185H160.782H160.945V28.1045H160.782ZM160.782 34.6185L160.901 34.7304L164.034 31.3719L163.915 31.2601L163.795 31.1482L160.662 34.5067L160.782 34.6185ZM163.915 31.2601V31.4241H166.191V31.2601V31.0961H163.915V31.2601ZM166.191 31.2601L166.07 31.1491L161.968 35.612L162.089 35.723L162.21 35.834L166.312 31.371L166.191 31.2601ZM162.089 35.723L161.953 35.8153L167.971 44.651L168.107 44.5587L168.243 44.4664L162.224 35.6307L162.089 35.723ZM168.107 44.5587V44.3947H166.101V44.5587V44.7227H168.107V44.5587ZM166.101 44.5587L166.235 44.4645L160.983 36.9812L160.849 37.0754L160.715 37.1696L165.967 44.6529L166.101 44.5587ZM160.849 37.0754L160.718 36.977L160.65 37.0672L160.782 37.1656L160.913 37.264L160.98 37.1738L160.849 37.0754Z" fill="#17253F"/>
</svg>
