<svg width="90" height="106" viewBox="0 0 90 106" fill="none" xmlns="http://www.w3.org/2000/svg">
<path d="M6.24104 1.00886C-0.888116 7.01838 1.60418 18.1922 8.52359 23.1645C16.2418 28.7106 26.2636 27.7863 34.7627 24.7445C38.7459 23.322 43.6885 21.64 46.5568 18.3668C49.8092 14.6489 47.6767 10.2496 43.2926 8.97205C34.2683 6.34512 27.6561 19.0462 25.0783 25.6996C21.7808 34.2098 21.7316 44.1868 27.5024 51.6468C33.3173 59.1673 43.1356 60.0454 51.4637 56.4839C55.2751 54.8578 61.4808 51.5049 61.2015 46.5981C61.0875 44.6018 59.7808 42.609 57.5688 42.809C55.5737 42.9889 53.946 44.979 52.8671 46.4962C50.5869 49.6993 49.2082 53.7118 47.8209 57.3639C46.2887 61.401 45.0062 65.5518 44.3776 69.8304C42.9609 79.489 46.1209 89.0393 55.2875 93.5489C65.0804 98.3644 76.245 95.5788 85.196 90.1992L85.484 92.9731C81.0475 91.2047 76.6108 89.4365 72.169 87.6673C72.6172 86.6694 73.0653 85.6716 73.5134 84.6737C78.471 87.1874 83.5914 89.2704 88.8978 90.9103C89.8872 91.2186 90.16 92.7407 89.4993 93.4537C85.8997 97.3432 82.2956 101.227 78.696 105.116C77.2587 106.669 74.6863 104.599 76.1365 103.032C79.7405 99.1483 83.3454 95.2597 86.9442 91.3754L87.5458 93.9189C82.2402 92.2737 77.1138 90.1951 72.169 87.6673C70.3017 86.7087 71.5507 83.8826 73.5134 84.6737C77.9423 86.4569 82.3757 88.2461 86.8046 90.0293C87.8615 90.4553 88.1348 92.1813 87.0926 92.8033C77.1773 98.715 64.8404 101.754 54.0007 96.4121C44.164 91.5684 39.969 81.5204 41.0994 70.9114C41.7014 65.2827 43.4898 59.7944 45.5764 54.5559C47.3843 50.0144 49.2282 44.8242 53.1188 41.6124C56.3476 38.9472 61.1157 39.0186 63.2977 42.959C65.7395 47.3632 63.2694 52.1082 59.7796 55.0441C51.6566 61.8814 38.6936 64.266 29.6675 57.9119C20.3857 51.379 18.1049 38.8704 20.9661 28.4428C23.3704 19.6928 30.4597 5.1832 41.3728 5.54933C45.425 5.68713 49.7653 8.14838 50.9871 12.214C52.4411 17.0609 48.7854 21.1401 44.9255 23.4612C34.5604 29.6895 19.621 33.2757 8.71981 26.498C4.08553 23.6214 0.621215 18.9842 0.0810039 13.4473C-0.423457 8.302 1.43958 3.26491 5.59843 0.11598C6.16165 -0.311826 6.77176 0.549209 6.23825 0.992328L6.24104 1.00886Z" fill="#E7F4EF"/>
</svg>
