<svg width="28" height="28" viewBox="0 0 28 28" fill="none" xmlns="http://www.w3.org/2000/svg">
<g opacity="0.4">
<path d="M2.33301 8.98542C2.33301 7.24458 3.74424 5.83334 5.48508 5.83334C6.38958 5.83334 7.1926 5.25456 7.47863 4.39648L7.58301 4.08334C7.63223 3.93568 7.65684 3.86184 7.68317 3.79635C8.0194 2.95999 8.8073 2.3921 9.70706 2.33761C9.77752 2.33334 9.85535 2.33334 10.011 2.33334H17.9883C18.144 2.33334 18.2218 2.33334 18.2923 2.33761C19.1921 2.3921 19.98 2.95999 20.3162 3.79635C20.3425 3.86184 20.3671 3.93568 20.4163 4.08334L20.5207 4.39648C20.8067 5.25456 21.6098 5.83334 22.5143 5.83334C24.2551 5.83334 25.6663 7.24458 25.6663 8.98542V18.9C25.6663 20.8602 25.6663 21.8403 25.2849 22.589C24.9493 23.2475 24.4139 23.783 23.7553 24.1185C23.0066 24.5 22.0265 24.5 20.0663 24.5H7.93301C5.97282 24.5 4.99273 24.5 4.24404 24.1185C3.58547 23.783 3.05004 23.2475 2.71448 22.589C2.33301 21.8403 2.33301 20.8602 2.33301 18.9V8.98542Z" stroke="#17253F" stroke-width="2" stroke-linecap="round" stroke-linejoin="round"/>
<path d="M13.9997 19.25C16.8992 19.25 19.2497 16.8995 19.2497 14C19.2497 11.1005 16.8992 8.75001 13.9997 8.75001C11.1002 8.75001 8.74967 11.1005 8.74967 14C8.74967 16.8995 11.1002 19.25 13.9997 19.25Z" stroke="#17253F" stroke-width="2" stroke-linecap="round" stroke-linejoin="round"/>
</g>
</svg>
