<svg width="140" height="54" viewBox="0 0 140 54" fill="none" xmlns="http://www.w3.org/2000/svg">
<rect width="139.387" height="53.4876" rx="26.7438" fill="#04DA8D"/>
<path d="M23.0433 10.1127V17.6265H21.8108V10.1127H23.0433ZM26.0993 12.675V15.9724C26.0993 16.1958 26.1498 16.358 26.2507 16.4589C26.3588 16.5526 26.539 16.5995 26.7913 16.5995H27.548V17.6265H26.575C26.0201 17.6265 25.5948 17.4968 25.2993 17.2373C25.0038 16.9779 24.8561 16.5562 24.8561 15.9724V12.675H24.1533V11.6695H24.8561V10.1884H26.0993V11.6695H27.548V12.675H26.0993ZM39.4927 11.6695L37.6439 17.6265H36.3466L35.1466 13.2264L33.9465 17.6265H32.6492L30.7896 11.6695H32.0437L33.287 16.4589L34.5519 11.6695H35.8385L37.0493 16.4373L38.2818 11.6695H39.4927ZM40.0029 14.621C40.0029 14.0228 40.1254 13.493 40.3705 13.0318C40.6227 12.5705 40.9615 12.2137 41.3867 11.9615C41.8192 11.702 42.2949 11.5722 42.8138 11.5722C43.2823 11.5722 43.6895 11.6659 44.0355 11.8533C44.3886 12.0335 44.6697 12.2606 44.8788 12.5344V11.6695H46.122V17.6265H44.8788V16.74C44.6697 17.0211 44.385 17.2553 44.0247 17.4427C43.6643 17.6301 43.2535 17.7238 42.7922 17.7238C42.2805 17.7238 41.812 17.5941 41.3867 17.3346C40.9615 17.0679 40.6227 16.7004 40.3705 16.2319C40.1254 15.7562 40.0029 15.2192 40.0029 14.621ZM44.8788 14.6426C44.8788 14.2318 44.7923 13.875 44.6193 13.5723C44.4535 13.2696 44.2337 13.039 43.9598 12.8804C43.6859 12.7218 43.3904 12.6426 43.0733 12.6426C42.7562 12.6426 42.4606 12.7218 42.1868 12.8804C41.9129 13.0318 41.6895 13.2588 41.5165 13.5615C41.3507 13.857 41.2678 14.2102 41.2678 14.621C41.2678 15.0318 41.3507 15.3922 41.5165 15.7021C41.6895 16.0121 41.9129 16.2499 42.1868 16.4157C42.4679 16.5742 42.7634 16.6535 43.0733 16.6535C43.3904 16.6535 43.6859 16.5742 43.9598 16.4157C44.2337 16.2571 44.4535 16.0265 44.6193 15.7238C44.7923 15.4138 44.8788 15.0535 44.8788 14.6426ZM49.9031 17.7238C49.4346 17.7238 49.013 17.6409 48.6382 17.4752C48.2706 17.3022 47.9787 17.0716 47.7625 16.7833C47.5463 16.4877 47.4309 16.1598 47.4165 15.7994H48.6922C48.7139 16.0517 48.8328 16.2643 49.049 16.4373C49.2724 16.6031 49.5499 16.686 49.8815 16.686C50.2274 16.686 50.4941 16.6211 50.6815 16.4913C50.8761 16.3544 50.9734 16.1814 50.9734 15.9724C50.9734 15.749 50.8653 15.5832 50.6491 15.4751C50.4401 15.367 50.1049 15.2481 49.6436 15.1183C49.1968 14.9958 48.8328 14.8769 48.5517 14.7616C48.2706 14.6462 48.0256 14.4697 47.8165 14.2318C47.6147 13.994 47.5138 13.6804 47.5138 13.2912C47.5138 12.9741 47.6075 12.6858 47.7949 12.4263C47.9823 12.1597 48.249 11.9506 48.5949 11.7993C48.9481 11.6479 49.3517 11.5722 49.8058 11.5722C50.4833 11.5722 51.0275 11.7452 51.4383 12.0912C51.8563 12.4299 52.0798 12.8948 52.1086 13.4858H50.8761C50.8545 13.2192 50.7464 13.0065 50.5518 12.848C50.3572 12.6894 50.0941 12.6101 49.7626 12.6101C49.4382 12.6101 49.1896 12.6714 49.0166 12.7939C48.8436 12.9164 48.7571 13.0786 48.7571 13.2804C48.7571 13.439 48.8148 13.5723 48.9301 13.6804C49.0454 13.7885 49.186 13.875 49.3517 13.9399C49.5175 13.9976 49.7626 14.0732 50.0869 14.1669C50.5193 14.2823 50.8725 14.4012 51.1464 14.5237C51.4275 14.639 51.6689 14.812 51.8707 15.0426C52.0725 15.2733 52.1771 15.5796 52.1843 15.9616C52.1843 16.3004 52.0906 16.6031 51.9032 16.8697C51.7158 17.1364 51.4491 17.3454 51.1031 17.4968C50.7644 17.6481 50.3644 17.7238 49.9031 17.7238ZM58.7785 10.1127C59.5785 10.1127 60.2777 10.2677 60.8759 10.5776C61.4813 10.8803 61.9462 11.32 62.2705 11.8966C62.6021 12.466 62.7678 13.1327 62.7678 13.8967C62.7678 14.6607 62.6021 15.3237 62.2705 15.8859C61.9462 16.4481 61.4813 16.8806 60.8759 17.1833C60.2777 17.4788 59.5785 17.6265 58.7785 17.6265H56.3244V10.1127H58.7785ZM58.7785 16.6211C59.6578 16.6211 60.3317 16.3832 60.8002 15.9075C61.2687 15.4318 61.5029 14.7616 61.5029 13.8967C61.5029 13.0246 61.2687 12.3434 60.8002 11.8533C60.3317 11.3632 59.6578 11.1182 58.7785 11.1182H57.5568V16.6211H58.7785ZM69.449 14.5021C69.449 14.7255 69.4346 14.9273 69.4058 15.1075H64.8542C64.8903 15.5832 65.0669 15.9652 65.384 16.2535C65.7011 16.5418 66.0903 16.686 66.5516 16.686C67.2147 16.686 67.6832 16.4085 67.9571 15.8535H69.2868C69.1067 16.4013 68.7787 16.8517 68.303 17.2049C67.8345 17.5508 67.2507 17.7238 66.5516 17.7238C65.9822 17.7238 65.4705 17.5977 65.0164 17.3454C64.5695 17.086 64.2164 16.7256 63.9569 16.2643C63.7047 15.7958 63.5785 15.2553 63.5785 14.6426C63.5785 14.03 63.701 13.493 63.9461 13.0318C64.1984 12.5633 64.5479 12.2029 64.9948 11.9506C65.4489 11.6984 65.9678 11.5722 66.5516 11.5722C67.1138 11.5722 67.6147 11.6948 68.0544 11.9398C68.494 12.1849 68.8364 12.5308 69.0814 12.9777C69.3265 13.4174 69.449 13.9255 69.449 14.5021ZM68.1625 14.1129C68.1553 13.6588 67.9931 13.2948 67.676 13.0209C67.3588 12.7471 66.966 12.6101 66.4975 12.6101C66.0723 12.6101 65.7083 12.7471 65.4056 13.0209C65.1029 13.2876 64.9227 13.6516 64.8651 14.1129H68.1625ZM71.8944 9.62623V17.6265H70.6619V9.62623H71.8944ZM74.1396 10.8803C73.9161 10.8803 73.7287 10.8047 73.5774 10.6533C73.426 10.5019 73.3503 10.3145 73.3503 10.0911C73.3503 9.86768 73.426 9.68028 73.5774 9.52893C73.7287 9.37757 73.9161 9.30189 74.1396 9.30189C74.3558 9.30189 74.5396 9.37757 74.6909 9.52893C74.8423 9.68028 74.918 9.86768 74.918 10.0911C74.918 10.3145 74.8423 10.5019 74.6909 10.6533C74.5396 10.8047 74.3558 10.8803 74.1396 10.8803ZM74.745 11.6695V17.6265H73.5125V11.6695H74.745ZM75.9523 14.6426C75.9523 14.03 76.0748 13.493 76.3199 13.0318C76.5721 12.5633 76.9181 12.2029 77.3577 11.9506C77.7974 11.6984 78.3019 11.5722 78.8713 11.5722C79.5921 11.5722 80.1867 11.7452 80.6552 12.0912C81.1309 12.4299 81.4516 12.9164 81.6174 13.5507H80.2876C80.1795 13.2552 80.0065 13.0246 79.7686 12.8588C79.5308 12.693 79.2317 12.6101 78.8713 12.6101C78.3668 12.6101 77.9632 12.7903 77.6605 13.1507C77.365 13.5039 77.2172 14.0012 77.2172 14.6426C77.2172 15.2841 77.365 15.785 77.6605 16.1454C77.9632 16.5058 78.3668 16.686 78.8713 16.686C79.5849 16.686 80.0569 16.3724 80.2876 15.7454H81.6174C81.4444 16.3508 81.1201 16.8337 80.6444 17.1941C80.1687 17.5472 79.5777 17.7238 78.8713 17.7238C78.3019 17.7238 77.7974 17.5977 77.3577 17.3454C76.9181 17.086 76.5721 16.7256 76.3199 16.2643C76.0748 15.7958 75.9523 15.2553 75.9523 14.6426ZM83.4727 10.8803C83.2492 10.8803 83.0618 10.8047 82.9105 10.6533C82.7591 10.5019 82.6835 10.3145 82.6835 10.0911C82.6835 9.86768 82.7591 9.68028 82.9105 9.52893C83.0618 9.37757 83.2492 9.30189 83.4727 9.30189C83.6889 9.30189 83.8727 9.37757 84.024 9.52893C84.1754 9.68028 84.2511 9.86768 84.2511 10.0911C84.2511 10.3145 84.1754 10.5019 84.024 10.6533C83.8727 10.8047 83.6889 10.8803 83.4727 10.8803ZM84.0781 11.6695V17.6265H82.8456V11.6695H84.0781ZM88.2801 17.7238C87.7179 17.7238 87.2098 17.5977 86.7557 17.3454C86.3017 17.086 85.9449 16.7256 85.6854 16.2643C85.426 15.7958 85.2962 15.2553 85.2962 14.6426C85.2962 14.0372 85.4296 13.5002 85.6962 13.0318C85.9629 12.5633 86.3269 12.2029 86.7882 11.9506C87.2494 11.6984 87.7648 11.5722 88.3342 11.5722C88.9036 11.5722 89.4189 11.6984 89.8802 11.9506C90.3414 12.2029 90.7054 12.5633 90.9721 13.0318C91.2388 13.5002 91.3721 14.0372 91.3721 14.6426C91.3721 15.2481 91.2352 15.785 90.9613 16.2535C90.6874 16.722 90.3126 17.086 89.8369 17.3454C89.3684 17.5977 88.8495 17.7238 88.2801 17.7238ZM88.2801 16.6535C88.5972 16.6535 88.8927 16.5778 89.1666 16.4265C89.4477 16.2751 89.6748 16.0481 89.8477 15.7454C90.0207 15.4427 90.1072 15.0751 90.1072 14.6426C90.1072 14.2102 90.0243 13.8462 89.8585 13.5507C89.6928 13.248 89.4729 13.0209 89.1991 12.8696C88.9252 12.7182 88.6297 12.6426 88.3125 12.6426C87.9954 12.6426 87.6999 12.7182 87.426 12.8696C87.1593 13.0209 86.9467 13.248 86.7882 13.5507C86.6296 13.8462 86.5503 14.2102 86.5503 14.6426C86.5503 15.2841 86.7125 15.7814 87.0368 16.1346C87.3684 16.4805 87.7828 16.6535 88.2801 16.6535ZM97.9853 11.6695V17.6265H96.7528V16.9238C96.5582 17.1689 96.3023 17.3635 95.9852 17.5076C95.6753 17.6445 95.3437 17.713 94.9906 17.713C94.5221 17.713 94.1005 17.6157 93.7257 17.4211C93.3581 17.2265 93.0662 16.9382 92.85 16.5562C92.6409 16.1742 92.5364 15.7129 92.5364 15.1724V11.6695H93.7581V14.9886C93.7581 15.5219 93.8914 15.9328 94.1581 16.2211C94.4248 16.5022 94.7888 16.6427 95.25 16.6427C95.7113 16.6427 96.0753 16.5022 96.342 16.2211C96.6159 15.9328 96.7528 15.5219 96.7528 14.9886V11.6695H97.9853ZM101.774 17.7238C101.305 17.7238 100.884 17.6409 100.509 17.4752C100.141 17.3022 99.8493 17.0716 99.6331 16.7833C99.4168 16.4877 99.3015 16.1598 99.2871 15.7994H100.563C100.584 16.0517 100.703 16.2643 100.92 16.4373C101.143 16.6031 101.421 16.686 101.752 16.686C102.098 16.686 102.365 16.6211 102.552 16.4913C102.747 16.3544 102.844 16.1814 102.844 15.9724C102.844 15.749 102.736 15.5832 102.52 15.4751C102.311 15.367 101.975 15.2481 101.514 15.1183C101.067 14.9958 100.703 14.8769 100.422 14.7616C100.141 14.6462 99.8961 14.4697 99.6871 14.2318C99.4853 13.994 99.3844 13.6804 99.3844 13.2912C99.3844 12.9741 99.4781 12.6858 99.6655 12.4263C99.8529 12.1597 100.12 11.9506 100.466 11.7993C100.819 11.6479 101.222 11.5722 101.676 11.5722C102.354 11.5722 102.898 11.7452 103.309 12.0912C103.727 12.4299 103.95 12.8948 103.979 13.4858H102.747C102.725 13.2192 102.617 13.0065 102.422 12.848C102.228 12.6894 101.965 12.6101 101.633 12.6101C101.309 12.6101 101.06 12.6714 100.887 12.7939C100.714 12.9164 100.628 13.0786 100.628 13.2804C100.628 13.439 100.685 13.5723 100.801 13.6804C100.916 13.7885 101.057 13.875 101.222 13.9399C101.388 13.9976 101.633 14.0732 101.957 14.1669C102.39 14.2823 102.743 14.4012 103.017 14.5237C103.298 14.639 103.54 14.812 103.741 15.0426C103.943 15.2733 104.048 15.5796 104.055 15.9616C104.055 16.3004 103.961 16.6031 103.774 16.8697C103.586 17.1364 103.32 17.3454 102.974 17.4968C102.635 17.6481 102.235 17.7238 101.774 17.7238ZM106.933 10.1127L106.792 15.3562H105.765L105.624 10.1127H106.933ZM106.316 17.7022C106.093 17.7022 105.906 17.6265 105.754 17.4752C105.603 17.3238 105.527 17.1364 105.527 16.913C105.527 16.6896 105.603 16.5022 105.754 16.3508C105.906 16.1994 106.093 16.1238 106.316 16.1238C106.533 16.1238 106.716 16.1994 106.868 16.3508C107.019 16.5022 107.095 16.6896 107.095 16.913C107.095 17.1364 107.019 17.3238 106.868 17.4752C106.716 17.6265 106.533 17.7022 106.316 17.7022Z" fill="#17253F"/>
<rect width="18.0177" height="18.0177" transform="translate(21 26.6359)" fill="#17253F"/>
<path fill-rule="evenodd" clip-rule="evenodd" d="M31.6214 34.1107L30.0084 29.1465L28.3955 34.1107H23.1758L27.3986 37.1787L25.7856 42.1429L30.0084 39.0749L34.2312 42.1429L32.8402 37.8617L30.3808 38.7807L32.6185 37.1794L32.6183 37.1787L36.8411 34.1107H31.6214Z" fill="white"/>
<rect width="18.0177" height="18.0177" transform="translate(40.8418 26.6359)" fill="#17253F"/>
<path fill-rule="evenodd" clip-rule="evenodd" d="M51.4632 34.1107L49.8502 29.1465L48.2373 34.1107H43.0176L47.2404 37.1787L45.6274 42.1429L49.8502 39.0749L54.073 42.1429L52.682 37.8617L50.2226 38.7807L52.4603 37.1794L52.4601 37.1787L56.6829 34.1107H51.4632Z" fill="white"/>
<rect width="18.0177" height="18.0177" transform="translate(60.6846 26.6359)" fill="#17253F"/>
<path fill-rule="evenodd" clip-rule="evenodd" d="M71.306 34.1107L69.693 29.1465L68.08 34.1107H62.8604L67.0832 37.1787L65.4702 42.1429L69.693 39.0749L73.9158 42.1429L72.5248 37.8617L70.0654 38.7807L72.3031 37.1794L72.3028 37.1787L76.5256 34.1107H71.306Z" fill="white"/>
<rect width="18.0177" height="18.0177" transform="translate(80.5264 26.6359)" fill="#17253F"/>
<path fill-rule="evenodd" clip-rule="evenodd" d="M91.1478 34.1107L89.5348 29.1465L87.9218 34.1107H82.7021L86.925 37.1787L85.312 42.1429L89.5348 39.0749L93.7576 42.1429L92.3665 37.8617L89.9072 38.7807L92.1448 37.1794L92.1446 37.1787L96.3674 34.1107H91.1478Z" fill="white"/>
<rect width="18.0177" height="18.0177" transform="translate(100.369 26.6359)" fill="#17253F"/>
<path fill-rule="evenodd" clip-rule="evenodd" d="M110.991 34.1107L109.378 29.1465L107.765 34.1107H102.545L106.768 37.1787L105.155 42.1429L109.378 39.0749L113.6 42.1429L112.209 37.8617L109.75 38.7807L111.988 37.1794L111.987 37.1787L116.21 34.1107H110.991Z" fill="white"/>
</svg>
