<svg width="79" height="74" viewBox="0 0 79 74" fill="none" xmlns="http://www.w3.org/2000/svg">
<path d="M0.77193 4.37281C5.80143 -0.898668 14.3965 1.582 17.942 7.21753C21.8967 13.5036 20.6943 21.2755 17.9136 27.758C16.6127 30.7962 15.0634 34.5703 12.3728 36.6501C9.31686 39.0081 5.9882 37.1335 5.20241 33.6529C3.58719 26.4884 13.8108 21.9416 19.1238 20.2508C25.9195 18.0879 33.7032 18.5289 39.2442 23.3881C44.8302 28.2846 45.0433 35.9843 41.8655 42.3085C40.4142 45.203 37.5009 49.8819 33.6874 49.4283C32.136 49.2434 30.6445 48.1285 30.9068 46.413C31.1429 44.8656 32.7733 43.6917 34.0084 42.9232C36.6161 41.2987 39.8119 40.4162 42.7268 39.5097C45.9491 38.5087 49.2481 37.7079 52.6152 37.4231C60.2163 36.7823 67.513 39.7057 70.5897 47.0716C73.8749 54.9408 71.1659 63.5144 66.5402 70.2371L68.6898 70.595C67.5238 67.0498 66.3578 63.5047 65.1914 59.9554C64.3916 60.2569 63.5918 60.5585 62.792 60.8601C64.5143 64.8474 65.8929 68.941 66.9169 73.1584C67.1098 73.9449 68.2838 74.2308 68.8717 73.7497C72.0782 71.1291 75.2802 68.5048 78.4866 65.8843C79.7669 64.8379 78.2758 62.7322 76.9839 63.7879C73.782 66.4122 70.5759 69.0369 67.3736 71.6571L69.3284 72.2485C68.3002 68.0315 66.9254 63.9334 65.1914 59.9554C64.5335 58.4529 62.2693 59.2913 62.792 60.8601C63.97 64.4 65.1524 67.9436 66.3304 71.4835C66.6118 72.3283 67.9449 72.6244 68.48 71.8414C73.5671 64.3923 76.53 54.9164 72.8846 46.2056C69.5795 38.301 61.9444 34.5464 53.6158 34.9183C49.197 35.1174 44.8306 36.2485 40.6447 37.6242C37.0158 38.816 32.8792 40.0048 30.1873 42.8848C27.9536 45.275 27.7801 48.9972 30.7485 50.8883C34.0662 53.0044 37.8856 51.3058 40.343 48.7251C46.0659 42.7183 48.5485 32.7227 44.0265 25.3777C39.3773 17.8247 29.7311 15.4448 21.4609 17.1753C14.521 18.6302 2.86397 23.4621 2.62519 31.9911C2.53796 35.1581 4.24902 38.6615 7.36121 39.8097C11.0715 41.1766 14.4287 38.5215 16.4244 35.6225C21.78 27.8378 25.2948 16.3585 20.5325 7.53073C18.5115 3.77813 15.0614 0.853417 10.769 0.166063C6.78024 -0.474595 2.76217 0.736423 0.106424 3.82872C-0.254294 4.24743 0.387935 4.76464 0.759169 4.36983L0.77193 4.37281Z" fill="#17253F"/>
</svg>
