<svg width="68" height="17" viewBox="0 0 68 17" fill="none" xmlns="http://www.w3.org/2000/svg">
<path d="M12.0137 11.435C11.1992 11.435 10.4653 11.7867 9.95601 12.3462L5.37489 9.50893C5.49719 9.19584 5.56502 8.85577 5.56502 8.5C5.56502 8.1441 5.49719 7.80403 5.37489 7.49107L9.95601 4.65363C10.4653 5.21315 11.1992 5.56503 12.0137 5.56503C13.548 5.56503 14.7963 4.3168 14.7963 2.78245C14.7963 1.2481 13.548 0 12.0137 0C10.4793 0 9.23112 1.24823 9.23112 2.78258C9.23112 3.13834 9.29908 3.47842 9.42126 3.79151L4.84026 6.62882C4.33093 6.0693 3.59709 5.71742 2.78258 5.71742C1.24823 5.71742 0 6.96578 0 8.5C0 10.0343 1.24823 11.2826 2.78258 11.2826C3.59709 11.2826 4.33093 10.9308 4.84026 10.3712L9.42126 13.2085C9.29908 13.5216 9.23112 13.8617 9.23112 14.2176C9.23112 15.7518 10.4793 17 12.0137 17C13.548 17 14.7963 15.7518 14.7963 14.2176C14.7963 12.6832 13.548 11.435 12.0137 11.435ZM10.2458 2.78258C10.2458 1.80775 11.0389 1.01464 12.0137 1.01464C12.9885 1.01464 13.7816 1.80775 13.7816 2.78258C13.7816 3.7574 12.9885 4.55051 12.0137 4.55051C11.0389 4.55051 10.2458 3.7574 10.2458 2.78258ZM2.78258 10.2679C1.80762 10.2679 1.01451 9.47482 1.01451 8.5C1.01451 7.52518 1.80762 6.73206 2.78258 6.73206C3.7574 6.73206 4.55038 7.52518 4.55038 8.5C4.55038 9.47482 3.7574 10.2679 2.78258 10.2679ZM10.2458 14.2174C10.2458 13.2426 11.0389 12.4495 12.0137 12.4495C12.9885 12.4495 13.7816 13.2426 13.7816 14.2174C13.7816 15.1922 12.9885 15.9854 12.0137 15.9854C11.0389 15.9854 10.2458 15.1922 10.2458 14.2174Z" fill="#3A4F64"/>
<path opacity="0.7" d="M25.6604 14.112C24.9137 14.112 24.2417 13.984 23.6444 13.728C23.0471 13.4613 22.5777 13.088 22.2364 12.608C21.8951 12.128 21.7244 11.568 21.7244 10.928H23.6764C23.7191 11.408 23.9057 11.8027 24.2364 12.112C24.5777 12.4213 25.0524 12.576 25.6604 12.576C26.2897 12.576 26.7804 12.4267 27.1324 12.128C27.4844 11.8187 27.6604 11.424 27.6604 10.944C27.6604 10.5707 27.5484 10.2667 27.3244 10.032C27.1111 9.79733 26.8391 9.616 26.5084 9.488C26.1884 9.36 25.7404 9.22133 25.1644 9.072C24.4391 8.88 23.8471 8.688 23.3884 8.496C22.9404 8.29333 22.5564 7.984 22.2364 7.568C21.9164 7.152 21.7564 6.59733 21.7564 5.904C21.7564 5.264 21.9164 4.704 22.2364 4.224C22.5564 3.744 23.0044 3.376 23.5804 3.12C24.1564 2.864 24.8231 2.736 25.5804 2.736C26.6577 2.736 27.5377 3.008 28.2204 3.552C28.9137 4.08533 29.2977 4.82133 29.3724 5.76H27.3564C27.3244 5.35467 27.1324 5.008 26.7804 4.72C26.4284 4.432 25.9644 4.288 25.3884 4.288C24.8657 4.288 24.4391 4.42133 24.1084 4.688C23.7777 4.95467 23.6124 5.33867 23.6124 5.84C23.6124 6.18133 23.7137 6.464 23.9164 6.688C24.1297 6.90133 24.3964 7.072 24.7164 7.2C25.0364 7.328 25.4737 7.46667 26.0284 7.616C26.7644 7.81867 27.3617 8.02133 27.8204 8.224C28.2897 8.42667 28.6844 8.74133 29.0044 9.168C29.3351 9.584 29.5004 10.144 29.5004 10.848C29.5004 11.4133 29.3457 11.9467 29.0364 12.448C28.7377 12.9493 28.2951 13.3547 27.7084 13.664C27.1324 13.9627 26.4497 14.112 25.6604 14.112ZM36.2126 5.04C36.8846 5.04 37.482 5.184 38.0046 5.472C38.538 5.76 38.954 6.18667 39.2526 6.752C39.562 7.31733 39.7166 8 39.7166 8.8V14H37.9086V9.072C37.9086 8.28267 37.7113 7.68 37.3166 7.264C36.922 6.83733 36.3833 6.624 35.7006 6.624C35.018 6.624 34.474 6.83733 34.0686 7.264C33.674 7.68 33.4766 8.28267 33.4766 9.072V14H31.6526V2.16H33.4766V6.208C33.786 5.83467 34.1753 5.54667 34.6446 5.344C35.1246 5.14133 35.6473 5.04 36.2126 5.04ZM41.4353 9.552C41.4353 8.66667 41.6166 7.88267 41.9793 7.2C42.3526 6.51733 42.8539 5.98933 43.4833 5.616C44.1233 5.232 44.8273 5.04 45.5953 5.04C46.2886 5.04 46.8913 5.17867 47.4033 5.456C47.9259 5.72267 48.3419 6.05867 48.6513 6.464V5.184H50.4913V14H48.6513V12.688C48.3419 13.104 47.9206 13.4507 47.3873 13.728C46.8539 14.0053 46.2459 14.144 45.5633 14.144C44.8059 14.144 44.1126 13.952 43.4833 13.568C42.8539 13.1733 42.3526 12.6293 41.9793 11.936C41.6166 11.232 41.4353 10.4373 41.4353 9.552ZM48.6513 9.584C48.6513 8.976 48.5233 8.448 48.2673 8C48.0219 7.552 47.6966 7.21067 47.2913 6.976C46.8859 6.74133 46.4486 6.624 45.9793 6.624C45.5099 6.624 45.0726 6.74133 44.6673 6.976C44.2619 7.2 43.9313 7.536 43.6753 7.984C43.4299 8.42133 43.3073 8.944 43.3073 9.552C43.3073 10.16 43.4299 10.6933 43.6753 11.152C43.9313 11.6107 44.2619 11.9627 44.6673 12.208C45.0833 12.4427 45.5206 12.56 45.9793 12.56C46.4486 12.56 46.8859 12.4427 47.2913 12.208C47.6966 11.9733 48.0219 11.632 48.2673 11.184C48.5233 10.7253 48.6513 10.192 48.6513 9.584ZM54.711 6.464C54.9777 6.016 55.3297 5.66933 55.767 5.424C56.215 5.168 56.743 5.04 57.351 5.04V6.928H56.887C56.1723 6.928 55.6283 7.10933 55.255 7.472C54.8923 7.83467 54.711 8.464 54.711 9.36V14H52.887V5.184H54.711V6.464ZM67.1076 9.376C67.1076 9.70667 67.0863 10.0053 67.0436 10.272H60.3076C60.361 10.976 60.6223 11.5413 61.0916 11.968C61.561 12.3947 62.137 12.608 62.8196 12.608C63.801 12.608 64.4943 12.1973 64.8996 11.376H66.8676C66.601 12.1867 66.1156 12.8533 65.4116 13.376C64.7183 13.888 63.8543 14.144 62.8196 14.144C61.977 14.144 61.2196 13.9573 60.5476 13.584C59.8863 13.2 59.3636 12.6667 58.9796 11.984C58.6063 11.2907 58.4196 10.4907 58.4196 9.584C58.4196 8.67733 58.601 7.88267 58.9636 7.2C59.337 6.50667 59.8543 5.97333 60.5156 5.6C61.1876 5.22667 61.9556 5.04 62.8196 5.04C63.6516 5.04 64.393 5.22133 65.0436 5.584C65.6943 5.94667 66.201 6.45867 66.5636 7.12C66.9263 7.77067 67.1076 8.52267 67.1076 9.376ZM65.2036 8.8C65.193 8.128 64.953 7.58933 64.4836 7.184C64.0143 6.77867 63.433 6.576 62.7396 6.576C62.1103 6.576 61.5716 6.77867 61.1236 7.184C60.6756 7.57867 60.409 8.11733 60.3236 8.8H65.2036Z" fill="#1B2B3A"/>
</svg>
