<svg width="73" height="17" viewBox="0 0 73 17" fill="none" xmlns="http://www.w3.org/2000/svg">
<path d="M15.8556 11.5573C16.2002 11.1129 16.3655 10.6366 16.3444 10.146C16.3233 9.6056 16.0841 9.18256 15.8872 8.92305C16.1158 8.34714 16.2037 7.44061 15.4406 6.73672C14.8815 6.22125 13.9321 5.99017 12.6169 6.05416C11.6921 6.09682 10.9185 6.27102 10.8869 6.27813H10.8833C10.7075 6.31012 10.5212 6.34923 10.3313 6.39189C10.3172 6.16437 10.3559 5.59912 10.7708 4.32643C11.2631 2.812 11.235 1.65307 10.6794 0.878085C10.0957 0.06399 9.16381 0 8.88953 0C8.6258 0 8.38317 0.110205 8.21086 0.31284C7.82054 0.771435 7.86625 1.61752 7.91548 2.00857C7.45131 3.26704 6.15023 6.35278 5.04959 7.20954C5.02849 7.22376 5.01091 7.24153 4.99333 7.25931C4.66982 7.60414 4.4518 7.97742 4.30411 8.30448C4.09664 8.19072 3.86104 8.12673 3.60786 8.12673H1.46283C0.654056 8.12673 0 8.79151 0 9.60561V15.3825C0 16.2001 0.657572 16.8614 1.46283 16.8614H3.60786C3.92082 16.8614 4.21268 16.7618 4.4518 16.5912L5.27816 16.6907C5.40475 16.7085 7.65527 16.9964 9.96556 16.9502C10.384 16.9822 10.7779 17 11.1436 17C11.773 17 12.3216 16.9502 12.7787 16.8507C13.8547 16.6196 14.5897 16.1575 14.9624 15.4785C15.2472 14.9594 15.2472 14.444 15.2015 14.1169C15.9013 13.477 16.0244 12.7696 15.9998 12.2719C15.9857 11.9839 15.9224 11.7386 15.8556 11.5573ZM1.46283 15.9015C1.178 15.9015 0.949436 15.6669 0.949436 15.3825V9.60205C0.949436 9.31409 1.18152 9.08302 1.46283 9.08302H3.60786C3.89269 9.08302 4.12125 9.31765 4.12125 9.60205V15.3789C4.12125 15.6669 3.88917 15.898 3.60786 15.898H1.46283V15.9015ZM14.9554 11.1414C14.8077 11.2978 14.7796 11.536 14.8921 11.7208C14.8921 11.7244 15.0363 11.9732 15.0538 12.3145C15.0784 12.7802 14.8569 13.1926 14.3927 13.5445C14.2275 13.6725 14.1607 13.8929 14.231 14.092C14.231 14.0956 14.3822 14.5648 14.136 15.0092C13.9004 15.4358 13.3765 15.7415 12.5818 15.9122C11.9453 16.0508 11.0803 16.0757 10.0183 15.9904C10.0042 15.9904 9.98666 15.9904 9.96908 15.9904C7.70801 16.0401 5.42233 15.7415 5.39772 15.738H5.3942L5.03904 15.6953C5.06014 15.5958 5.07069 15.4891 5.07069 15.3825V9.60205C5.07069 9.44918 5.04608 9.29988 5.00388 9.16123C5.06717 8.92305 5.243 8.39335 5.65793 7.94187C7.23681 6.67629 8.78052 2.40673 8.84733 2.22187C8.87547 2.14722 8.8825 2.06545 8.86843 1.98369C8.80865 1.58553 8.82975 1.09849 8.91415 0.952739C9.10052 0.956294 9.60337 1.00962 9.90578 1.43266C10.2645 1.93392 10.2504 2.82978 9.86358 4.01715C9.27282 5.82664 9.22359 6.77938 9.69128 7.19887C9.92336 7.40862 10.2328 7.41928 10.4579 7.33752C10.6724 7.28775 10.8763 7.24509 11.0697 7.21309C11.0838 7.20954 11.1014 7.20598 11.1154 7.20243C12.195 6.96424 14.129 6.81849 14.8007 7.43706C15.3703 7.9632 14.9659 8.65998 14.9202 8.73463C14.7901 8.93371 14.8288 9.19322 15.0046 9.3532C15.0081 9.35676 15.3773 9.7087 15.3949 10.1815C15.409 10.4979 15.2613 10.8214 14.9554 11.1414Z" fill="#3A4F64"/>
<path opacity="0.7" d="M25.3542 2.88V9.968C25.3542 10.8107 25.5729 11.4453 26.0102 11.872C26.4582 12.2987 27.0769 12.512 27.8662 12.512C28.6662 12.512 29.2849 12.2987 29.7222 11.872C30.1702 11.4453 30.3942 10.8107 30.3942 9.968V2.88H32.2182V9.936C32.2182 10.8427 32.0209 11.6107 31.6262 12.24C31.2315 12.8693 30.7035 13.3387 30.0422 13.648C29.3809 13.9573 28.6502 14.112 27.8502 14.112C27.0502 14.112 26.3195 13.9573 25.6582 13.648C25.0075 13.3387 24.4902 12.8693 24.1062 12.24C23.7222 11.6107 23.5302 10.8427 23.5302 9.936V2.88H25.3542ZM37.7931 14.144C37.0997 14.144 36.4757 14.0213 35.9211 13.776C35.3771 13.52 34.9451 13.1787 34.6251 12.752C34.3051 12.3147 34.1344 11.8293 34.1131 11.296H36.0011C36.0331 11.6693 36.2091 11.984 36.5291 12.24C36.8597 12.4853 37.2704 12.608 37.7611 12.608C38.2731 12.608 38.6677 12.512 38.9451 12.32C39.2331 12.1173 39.3771 11.8613 39.3771 11.552C39.3771 11.2213 39.2171 10.976 38.8971 10.816C38.5877 10.656 38.0917 10.48 37.4091 10.288C36.7477 10.1067 36.2091 9.93067 35.7931 9.76C35.3771 9.58933 35.0144 9.328 34.7051 8.976C34.4064 8.624 34.2571 8.16 34.2571 7.584C34.2571 7.11467 34.3957 6.688 34.6731 6.304C34.9504 5.90933 35.3451 5.6 35.8571 5.376C36.3797 5.152 36.9771 5.04 37.6491 5.04C38.6517 5.04 39.4571 5.296 40.0651 5.808C40.6837 6.30933 41.0144 6.99733 41.0571 7.872H39.2331C39.2011 7.47733 39.0411 7.16267 38.7531 6.928C38.4651 6.69333 38.0757 6.576 37.5851 6.576C37.1051 6.576 36.7371 6.66667 36.4811 6.848C36.2251 7.02933 36.0971 7.26933 36.0971 7.568C36.0971 7.80267 36.1824 8 36.3531 8.16C36.5237 8.32 36.7317 8.448 36.9771 8.544C37.2224 8.62933 37.5851 8.74133 38.0651 8.88C38.7051 9.05067 39.2277 9.22667 39.6331 9.408C40.0491 9.57867 40.4064 9.83467 40.7051 10.176C41.0037 10.5173 41.1584 10.9707 41.1691 11.536C41.1691 12.0373 41.0304 12.4853 40.7531 12.88C40.4757 13.2747 40.0811 13.584 39.5691 13.808C39.0677 14.032 38.4757 14.144 37.7931 14.144ZM51.2199 9.376C51.2199 9.70667 51.1986 10.0053 51.1559 10.272H44.4199C44.4733 10.976 44.7346 11.5413 45.2039 11.968C45.6733 12.3947 46.2493 12.608 46.9319 12.608C47.9133 12.608 48.6066 12.1973 49.0119 11.376H50.9799C50.7133 12.1867 50.2279 12.8533 49.5239 13.376C48.8306 13.888 47.9666 14.144 46.9319 14.144C46.0893 14.144 45.3319 13.9573 44.6599 13.584C43.9986 13.2 43.4759 12.6667 43.0919 11.984C42.7186 11.2907 42.5319 10.4907 42.5319 9.584C42.5319 8.67733 42.7133 7.88267 43.0759 7.2C43.4493 6.50667 43.9666 5.97333 44.6279 5.6C45.2999 5.22667 46.0679 5.04 46.9319 5.04C47.7639 5.04 48.5053 5.22133 49.1559 5.584C49.8066 5.94667 50.3133 6.45867 50.6759 7.12C51.0386 7.77067 51.2199 8.52267 51.2199 9.376ZM49.3159 8.8C49.3053 8.128 49.0653 7.58933 48.5959 7.184C48.1266 6.77867 47.5453 6.576 46.8519 6.576C46.2226 6.576 45.6839 6.77867 45.2359 7.184C44.7879 7.57867 44.5213 8.11733 44.4359 8.8H49.3159ZM56.7109 6.672H55.0789V14H53.2389V6.672H52.1989V5.184H53.2389V4.56C53.2389 3.54667 53.5056 2.81067 54.0389 2.352C54.5829 1.88267 55.4309 1.648 56.5829 1.648V3.168C56.0283 3.168 55.6389 3.27467 55.4149 3.488C55.1909 3.69067 55.0789 4.048 55.0789 4.56V5.184H56.7109V6.672ZM66.3114 5.184V14H64.4874V12.96C64.1994 13.3227 63.8208 13.6107 63.3514 13.824C62.8928 14.0267 62.4021 14.128 61.8794 14.128C61.1861 14.128 60.5621 13.984 60.0074 13.696C59.4634 13.408 59.0314 12.9813 58.7114 12.416C58.4021 11.8507 58.2474 11.168 58.2474 10.368V5.184H60.0554V10.096C60.0554 10.8853 60.2528 11.4933 60.6474 11.92C61.0421 12.336 61.5808 12.544 62.2634 12.544C62.9461 12.544 63.4848 12.336 63.8794 11.92C64.2848 11.4933 64.4874 10.8853 64.4874 10.096V5.184H66.3114ZM70.5421 2.16V14H68.7181V2.16H70.5421Z" fill="#1B2B3A"/>
</svg>
