<svg width="135" height="25" viewBox="0 0 135 25" fill="none" xmlns="http://www.w3.org/2000/svg">
<rect width="24.82" height="24.82" fill="#00B57A"/>
<path fill-rule="evenodd" clip-rule="evenodd" d="M14.6317 10.2967L12.4098 3.45837L10.1878 10.2967L2.99756 10.2967L8.81462 14.5231L6.5927 21.3615L12.4098 17.1351L18.2268 21.3615L16.3106 15.464L12.9228 16.7298L16.0052 14.5241L16.0049 14.5231L21.822 10.2967L14.6317 10.2967Z" fill="white"/>
<rect width="24.82" height="24.82" transform="translate(27.3311)" fill="#00B57A"/>
<path fill-rule="evenodd" clip-rule="evenodd" d="M41.9627 10.2967L39.7408 3.45837L37.5189 10.2967L30.3286 10.2967L36.1457 14.5231L33.9238 21.3615L39.7408 17.1351L45.5579 21.3615L43.6417 15.464L40.2539 16.7298L43.3363 14.5241L43.336 14.5231L49.153 10.2967L41.9627 10.2967Z" fill="white"/>
<rect width="24.82" height="24.82" transform="translate(54.6621)" fill="#00B57A"/>
<path fill-rule="evenodd" clip-rule="evenodd" d="M69.2938 10.2967L67.0719 3.45837L64.85 10.2967L57.6597 10.2967L63.4767 14.5231L61.2548 21.3615L67.0719 17.1351L72.8889 21.3615L70.9727 15.464L67.5849 16.7298L70.6673 14.5241L70.667 14.5231L76.4841 10.2967L69.2938 10.2967Z" fill="white"/>
<rect width="24.82" height="24.82" transform="translate(81.9932)" fill="#00B57A"/>
<path fill-rule="evenodd" clip-rule="evenodd" d="M96.6249 10.2967L94.4029 3.45837L92.181 10.2967L84.9907 10.2967L90.8078 14.5231L88.5859 21.3615L94.4029 17.1351L100.22 21.3615L98.3038 15.464L94.916 16.7298L97.9984 14.5241L97.9981 14.5231L103.815 10.2967L96.6249 10.2967Z" fill="white"/>
<rect width="24.82" height="24.82" transform="translate(109.324)" fill="#00B57A"/>
<path fill-rule="evenodd" clip-rule="evenodd" d="M123.956 10.2967L121.734 3.45837L119.512 10.2967L112.322 10.2967L118.139 14.5231L115.917 21.3615L121.734 17.1351L127.551 21.3615L125.635 15.464L122.247 16.7298L125.329 14.5241L125.329 14.5231L131.146 10.2967L123.956 10.2967Z" fill="white"/>
</svg>
